<?xml version="1.0" encoding="UTF-8"?>
<svg xmlns="http://www.w3.org/2000/svg" version="1.1" viewBox="0 0 400 400">
  <!-- Generator: Adobe Illustrator 29.8.2, SVG Export Plug-In . SVG Version: 2.1.1 Build 3)  -->
  <g id="gold">
    <rect x="-99.65" y="-94.43" width="600" height="600.52" fill="#ff9700"/>
  </g>
  <g id="svg">
    <g id="svgg">
      <path id="path0" d="M178.09,5.94c-232.7,23.5-224.44,378.6,8.8,390.57-15.42-1.36-38.93-5.41-57.43-13.11-9.09-3-36.11-17.89-25.19-12.78,1.28,1.28,4.24,2.37,4.91,1.81.42-.35.97-.44,1.24-.2.26.24.31-.03.11-.59-.49-1.42.81-1.25.81,0-.03,1.86.68-1.28,1.97-.68,1.15.48,2.97-1.47,3.5.03.24.63.1.83-.43.63-1.12-.37-1.1,1.74.29.7,1.78-.71-.45-2.55.29-3.81.25-.64.16-.88-.23-.64-.87.49-.45-2.56-.47-3.13.51.66,1.53,1.99,2.04,2.65,0,0,.01-1.34.01-1.34.51-1.35-2.62-2.19-1.74-2.43,2.06-.72,2.59,3.71,3.48,2.36.34-.55.58-.59.8-.12.2.41.25.38.14-.08-.11-.99-1.43-.2-1.49-1.04.4-1.89,2.88,1.28,2.73-.27,0-.83-.58-1.15-1.73-.96-.48-.52,1.05-2.59.79-3.57.03-1.21.11-1.25.71-.36.77,2.25,2.31-2.57,2.81-1.29.03.57.21.47.51-.29,1.34-3.28-1.74-1.77-2.57-2.68.24-.85-1.88-1.83.45-2.29,1.19.15-2.2,1.58.33.85,1.04-.29,1.27-.21.94.35-.3.48-.22.59.22.32.37-.23.68-.12.68.24.66.78,3.03.6,6.86,2.62,16.92,7.85,42.47,12.74,54.3,13.91-201.76-20.44-206.44-320.11.36-338.73V5.26c-2.55.11-4.44.28-8.79.68M213.83,18.92v13.66c204.59,16.76,204.38,320.68,0,337.46v27.08c103.16-3.36,192.45-105.88,181.71-209.17-1.16,9.26.61,43.36-5.1,52.6-3.04-4.66,1.84-2.21.51-3.68-.89-.91-2.73.38-2.27,1.59.35.91-1.9.85-2.97-.08-1.39-.9.85-2.22.73-.98-.17.27.08.49.55.49,2.88-.46-2.07-1.49-2.08-2.21,0-.69.41-.66,1.94.16,2.88,1.52-2.35-3.46-2.53-.1,0,1.12-.05,1.13-1.08.15-.59-.56-.95-1.29-.79-1.61.16-.32-.04-.28-.45.09-.88.82-3.13-.79-2.52-1.81.22-.65-1.57,1.18-2.02.19-.44-.44-.76-.41-1.07.11-.59,1.08.92-.43,1.43.97,1.14,1.84-.08-1.61,2,.65.75.7,1.54,1.1,1.76.88.22-.22.4-.09.4.29,0,.97-1.48.85-2.35-.2-.82-1.48-1.9.61-2.74.09-.21-.21-.05-.38.34-.38,1.09-.18-.15-1.38-.84-.95-1.23.39-.87-1.35-2.36-.53-.92.65-2.35-.11-2.6.9-.29,1.4-2.1-1.46-.59-.89.98.39.53-1.58,0-1.76-.96-.52-.25,1.77-1.23.29-1.12-1.66.4,2.08-.8,1.76-1.1-.12-.12,3.54-.85,3.78-1.02.63-1.2-2.62-.38-7.1,4.21-23.04,3.13-50.16-2.96-74.42-.74-1.71,1.23-1.81,1.53-.82,0,.34-.26.46-.58.26-1.03-.18.37,1.48,1.14,1.21,1.41.13.33-.8,1.1-.92.86,0,1.29,1.65.5,1.93-.39.13-.04.13.77,0,.83-.03,3.4-1.47,1.67-1.04-.53.2-1.11.14-1.28-.14-.35-.72,5.09-.51,4.43.38-.09.4.1.56.41.37.8-.45-.27-1.88.56-2.33,1.02-.35-.9-3.17.83-1.58.64.52.99.57.99.15.22-1.19-2.44-.28-3.15-1.13-.15-.97,1.61-.38,2.57-.94,1.11-.32,1.25-.28.59.19-1.37,1.16.93.49,1.19-.58.5-.93.83-1.06,1.44-.55,1.67,1.53-.8-3.52,1.05-1.02,1.16,1.41,1.48,1.29,1.15-.44-.15-.81-.56-1.47-.9-1.47s-.43-.19-.2-.42c.43-.86,3.99,4.47,3.63,2.22.05-1.46-.93-.62-1.34-1.66-.38-1.03,1.29-.92,2.17.15.33.62,2.33,1.37,1.46.43-.75-.54-.94-3.77-.2-3.31.32.2.39-.34.15-1.32-.56-2.36-.9-2.78-1.47-1.87-.77,1.44-.61-1.43,0-1.26.29,0,.43-.59.3-1.32-.45-2.57,2.17,5.81,3.9,12.46,2.38,7.01,4.1,23.57,5.75,29.66C389.27,90.43,307.97,9.73,214.56,5.27c-.56,0-.73,3.11-.73,13.65M257.48,14.1c2.21,1.01-3.46-.64-2.39.48.25.41.05.51-.56.27-1.73-.96,1.66-1.83,2.95-.75M269.79,18.16c2.47.83-1.62.65-1.76,0-.43-.69.15-.69,1.76,0M133.26,110.57l-53.32,53.8c-.08,6.53-.24,19.68-.31,26.21h11.45c23.88-23.9,71.94-72.01,95.82-95.9-.08-9.45-.23-28.45-.31-37.9l-53.32,53.8M213.83,75.93v18.77c23.88,23.9,71.93,71.99,95.8,95.88h11.42v-26.1c-26.73-26.75-80.51-80.57-107.23-107.31v18.77M37.35,94.11c-.7.81-1.36,1.47-1.47,1.47-.27-.85,4.11-5.16,1.47-1.47M35.27,98.95c-.23.6-.44.64-.74.15-.65-1.14-1.24,1.25-.41,1.38.39.16.19.3-.42.33-.62.03-.95.22-.73.44.5.91-2.17,2.44-.81,3.39.6.73.52.83-.52.63-1.75-.29-.63.93.29.87.46,0,.84.28.84.62s-.33.42-.73.18c-1.23-.64,1.14,1.84,1.65,1.15.46-.18.84-.03.84.33.16,1.02-4.46-.28-4.1.91,0,.97,3.2.87,4.2-.13.49-.63,2.21-1.21,1.19-.02-1.46.83,2.54,2,1.49,1.96-.64-.18-1.03.04-1.03.58,0,.47.2.83.44.79,1.74-.51,2.58,1.28,1.32,1.83-.32,0-.59-.26-.59-.59-.21-1.34-3.76.06-1.82.33.48-.51,1.5,1.49.65,1.13-.32-.2-.42.04-.22.55.36.94.96.78,2.72-.74,1.24-1.19,1.43.14,2.6-.79.67-.55.71-.41.24.82-.71,1.03.35,2.58-.49,1.97-.87-.18-.44-2.16-1.29-1.83-.79.32.37,2-.58,2.07-.38,0-.54-.23-.37-.51.17-.28-.59-.1-1.69.4-1.61.46-2.26,2.22-.97,1.43.46-.72,4.17-1.28,4.17-.63,0,.27.3.42.66.34,1.44-.32,1.05,1.21-.41,1.57-.86.21-1.43.52-1.28.67.76.65,4.34-2.24,3.14.68q-.37,1.62.68.41c.88-1.47,2.27-.33,2.49-1.66,0-.51.28-.93.62-.93s.47-.24.3-.53c-.09-1.11,1.98-1.73.5.83-1.65,4.13-.48,1.37,1.24,2.64,1.58,1.77.58-1.86-.37-1.45-.79.21.33-1.71.74-1.5.8.07-.49,1.26.75,1.17,1.42-.17.71-2.58,1.5-3.52,1.17-1.63-1.88-1.33-1.76-2.79-.11-1.83,1.49,1.8,2.34.74.49-.3.62-.24.37.16-.53.94.88,1.69.8.13,0-.68.25-1.09.55-.9.55.34-3.87,9.22-4.77,9.6-11.39,21.14-18.09,57.15-18.65,84.52-.29-.47-.55-.49-.81-.06-.43.69-2.11.26-2.11-.54.31-.61,1.74.25,2.29-.77.62-.74.42-.83-1.37-.61-2.67.67-1.81-1.63-2.68-.34-.31.48-.57.59-.58.24-1.05-1.95-3.98,1.28-1.33,1.51.88,0,.9-.09.15-.58-1.41-.94.89-.62.96.29.43,1.21,1.17-.04,1.6,1.19.28.74.13.78-.88.24-1.11-.86-2.95.15-3.78-.61-.21-.83-1.77.57-1.18-.44.27-.98,1.74.34,1.31-.52-.68-1.1-2.78-.16-2.17.98.93,1.54-1.2,3.86-.6.2.05-.4-.51-.74-1.25-.75-3,.13,2.21-1.54-.28-2-1.42-.5.09.44-.82,1.2-.64.77-.2,2.21.54,1.76.55-.21.37,2.19.4,2.65-1.02-1.52-3.88-5.99-3.61-3.98-.01,1.32.8.67,1.18,1.82.65,1.44-1.82-.44-1.23.96.31,1.13,1.62.17,1.62,1.45.27,1.61-3.02-1.37-3.69-1.71-.54.65-2.22,2.57-1.84,3.2.13,1.35-.91-.09-.67-1.47.03-1.45.23-1.85.72-1.44.75.83,1.8-.63.53-.67-1.41-.12-.58-1.94-2,.29-1.54,1.7.08,3.45-.69,4.71-1.02.35-.48-1.8-1.11.87-4.94-29.25,6.76-84.31,23.17-108.39-.62-.72,5.12-11.37,5.66-7.87M35.32,106.86c-.42.59,1.24.29.86.75-.5.5-2.26-.38-1.9-.96.18-.29.03-.52-.33-.52s-.5-.26-.3-.58c.43-.86,2.02.82,1.67,1.31M33.61,110.89c-.79,1.29,2.11-.75,1.3.8-.19.49-.06.89.27.89,1.32-.3-.48-3.48-1.57-1.69M33.9,114.49c-.67,1.02.39,4.38.43,2.93-.21-.34-.06-.78.35-.97.59-.27.59-.41,0-.69-1.04-.22.33-1.92-.78-1.27M45.12,122.67c1.24,3.21,1.95.17.45-.63-1.07-.67-1.1-.62-.45.63M182.77,157.15v24.63h-50.98v33.43h50.98v50.43h34.57v-50.43h50.98v-33.43h-50.98v-49.26h-34.57v24.63M385.51,144.28c-.27,1.12-2.71.38-1.38-.8.47-.47,1.38.06,1.38.8M385.23,146.58c-.17.27-.88.34-1.59.15-3.02-.45,2.85-1.74,1.59-.15M94.35,151.73c-2.51,2.41-4.95,6.93-3.13,5.81.34-.21.75-.02.92.43.46,1.6-4.37.23-3.35,1.64.63,1.03-1.66-.3-1.83.51-.47.77,1.87.71,3.35-.08.88-.47,1.1-.47.81,0-.57.9,1.09.39.51,1.29-1.07,1.21-1.46-2.8-1.65,1.26-.09,1.54,1.34,3.48,2.19,2.95.84-.48-.4,1.73.4,1.59.64.14,1-3.82-.24-2.4-1.04.86-1.71-.53-.84-1.76.46-.65.52-.61.26.2-.42,1.29.15,1.3,1.99.03,1.03-.71,1.27-.75.82-.15-1.64,2.23-.97,4.15,1.36,3.92,2.07-.21,2.19-.13,2.19,1.44,0,1.14-.24,1.57-.78,1.36-.61-.42-2.07.06-1.51-.98.61-1.01-1,.45-.93-.46,0-.34-.28-.62-.61-.62-.83.12,1.61,3.01,1.88,2.58.71-.43,2.25.47,1.86,1.09-.23.38-.09.44.36.16,1.16-.62-.43,2.19,1.04,2.69,1.96,1.59-.72-.97-.06-1.41.51-.63-1.23-3.94-.2-4.46.82-.82,1.59-.84,1.59-.03-.16.95-2.18-.96-.59,2.31.55.85.65.77.81-.68.05-.8,1.96-1.76,1.29-.04-.39,1.23.98,2.24,2.1,1.55.32-.2.24.18-.17.83-.81,2.57-2.8-2.12-1.69.56.36.73.49,1.59.3,1.9-.29.89,1.65-.26,1.3-.77-.77-1.27,3.51-.13,1.85-1.99-.56-.69-.58-.86-.07-.55.77.47,1.61-.18,3.18-2.46.71-1.53,2.08-.6,1.1-.1-.79-.04-.86,1.39.11.81.4-.24.23.15-.38.85-.6,1.19-2.68,1.07-2.48,1.69-.12,1.23-13.32,14.13-16.31,17.18h-10.86c.53-6.69-1.9-27.66,3.12-26.69-1.38.36,20-20.84,11-10.99M374.18,154.51c0,.93-1.38,1.65-2.2,1.14-2.06-1.74,2.12-3.54,2.2-1.14M376.39,155.05c-1.59,1.19-.6,1.79.62.35,1.25-1.38.99-1.52-.62-.35M320.47,177.21v12.19h-10.85c-3.18-3.34-20.9-20.36-19.59-20.83.47-.29.6-.22.35.18-.76,2.2,3.56.89,2.9,2.85-.73,1.88,2.21-2.01,1.72,1.38-.44.34,1.88,3.33,1.8,2.48-.76-1.34-.95-3.57-.33-3.96,1.19-.85.24,5.13,2.02,2.32.53-.7.87-.84.88-.37.03,1.23,1.19.16,1.19-1.1,0-.63.29-1.14.65-1.14,1.06.11-.71-2.71.61-1.32,2.44,1.79.73-.04,1.76-.78,1.02-.62-.44,1,.47,1,.76.37,4.22-.17,3.84,1.1-.2.32-.08.59.26.59,2.43-.48-4.48-3.41-.92-6.8.52-.46.69-.51.37-.12-.43.03-1.04,4.73-.04,3.46.29-.45.4-1.15.24-1.55-.66-2.56,4.41-.28,1.94,1.4-.94,1.04-.94,1.15.04,1.91.57.44.86.59.65.33-.23-3.85,1.86-2.67-1.27-5.98.77.56,2.16-1.5,2.83-.96.24.23.25-.18.03-.91-.64-3.15,2.45.35.62,1.34-1.06.77-.88,2.76.28,3.07.52.14.6.04.22-.26-1.31-1.05-.59-2.25,1.3-2.16,1.7.34,3.49-1.56,1.02-1.2-1.64.38-1.93-.84-.4-.98.62-.03.73-.16.29-.34-1.03-.52.12-1.2-1.03-1.96-3.33-4.22,5.25,3.97,6.16,4.94v12.19M84.59,162.24c0,.42.48,1.25.49.83-.24-.49,2.65-1.75.54-1.57-.63,0-1.09.33-1.03.74M96.01,163.68c-1.75,1.86,3.39,1.42.89,2.32-2.46.96-3.38-.39-1.58-2.3.41-.43.56-1.06.35-1.41-.3-.97,1.33.37.34,1.39M104.92,168.24c-1.02.62-.45,1.04-.88,1.97-.78.4.71-3.85,1.28-2.81.2.2.02.58-.4.84M305.45,169.01c-.22.35-.56.27-.86-.21-1.69-2.63,1.4-.97.86.21M300.93,173.12c-.58.89.99,3.29.44,1.41-.36-.95-.26-1.01.78-.45,2.3,1.78-.81-4.7-1.23-.96M267.74,198.8v15.82c-5.66-.07-40.53.03-39.37-.54,1.74-.21,3.35-.76,3.65-1.24.45-.72.54-.69.55.17,0,.64.46,1.03,1.22,1.03,1.48.08.77-1.28-.08-.86-.3.19-.55.09-.55-.2s1.38-.45,3.08-.33c4.12.19,1.3,0,1.77-2.07.64-3.84-1.2,2.8-1.88,1.17-.49-1.17-1.99.54-1.38-1.05.34-.91.26-.95-.54-.3-.93.75-2.21-.08-1.39-.9.69-.29-.03,1.69,1.18.47.57-.47.95-.49,1.21-.07.46.78,1.88.92.65-.31-1.42-1.42-1.09-2.34.39-1.07,1.9,1.6-.36-.73.22-1.09.43-1.07-2.65,1.29-2.91-.14-.28-1.37.8-.76.55-2.93.29-2.81-2.25-2.22-2.66-4.59.02-.98,1.73,1.82,1.75,1.03.02-.78,1.13,1.46,1.15.6.02-1.27-2.37-2.73-3.26-2-.55.45-.83.48-.83.07,0-.34.59-1.04,1.3-1.54,3.11-2.42-2.61.74-3.51,1.44-.51-3.75-2.1-1.04-1.68-2.24.48-.77,2.12-.27,2.12.65,0,.46.19.45.65-.01.81-.81.11-2.1-.84-1.53-.98.69.93-1.62.21-2.43-1.36-.93,2.81-4.31,3.29-5.99-.42-.28-2.16,1.79-2.64,2.28.02-.61.45-4.1.03-3.96-.17.17-.84-.15-1.48-.71-2.26-2.02,3.63,4.34-.44,5.13-.33,0-.45-.24-.28-.53.09-1.36-2.18-1.33-1.45.82-1.36.6-1.28-2.78,1.07-2.37,1.32.19-.75-.31-.09-.99.23-.38.12-.46-.29-.21-1.55.4-1.26-3.83-3.26-2.23-.51.19-.74.66-.52,1.02.27.68-1.93-1.21-2.48-.57-.53.2-.77.11-.56-.23.4-.78,3.7-.38,4.1-1.17.6-.97-3.81-.67-4.8.32-.5.5-1.06.75-1.26.55-.6-.59,2.24-1.55.35-1.45-3.31-1.73,41.94-.27,49.95-.57v15.82M224.55,186.9c.83,2.97-1.43-.59-.99-1.1.49-.8.67-.6.99,1.1M227.19,193.24c.15,2.53-.9,2.07-.72.15.13-1.99.48-3.73.72-.15M229.06,195.49c.03.2,2,2.38,1.76.73.13-.98-1.45-1.17-1.76-.73M228.32,200.86c1.44.66-1.26,2.24-1.89,2.91.45-.72,2.78-2.6,1.2-2.84-.92.05-1.12-3.08-.47-1.56.19.48.71,1.15,1.16,1.49M232.78,206.75c-.44.67-.66,1.35-.5,1.51.19.54-1.55.32-1.05-.49.39-1.01-.94-2.64-1.74-2.14-.36.23-.43.09-.18-.33.34-.54.65-.53,1.37.06,1.94,1.87-.87-2.96.93-.56,1.08,1.39,1.49,1.29,1.19-.29-.23-1.21-.21-1.22.26-.15.34.78.24,1.59-.28,2.39M228.69,207.14c-.71,1.05,1.86-.5,1.23.48-.53.86-1.61.38-1.78-.8-.18-1.38,1.1-.42.54.32M240.41,210.22c-.39,1.19-1.14.03-1.67.87-.4.89.98.46,1.05,1.62.41,1.78.25-1.92.89-1.61.89-.16.45-3.13-.27-.88M31.02,214.04c0,3.05-.4,3-.69,0-.31-3.06.72-3.01.69,0M223.94,214.45c-.73.14-1.91.14-2.64,0-1.73-.33,4.37-.33,2.64,0M79.65,227.67v13.05c26.66,26.69,80.32,80.39,106.98,107.07-.01-9.32-.03-28.09-.05-37.41-23.7-23.87-71.4-71.89-95.1-95.76h-11.83v13.05M261.73,262.57l-47.9,47.94v37.53c26.73-26.75,80.51-80.57,107.23-107.31v-26.1h-11.43l-47.9,47.94M320.47,222.54c0,3.71-.2,6.74-.44,6.74-.58.17-.2-7.81-.84-7.62-.59.08-.75-2.87.1-1.17.5.78.57.78.58-.02.01-1.09-3.55-4.34-4.04-3.68-1.52,1.6-5.34-1.68-6.5.18-.04.83-1.71.84-.58-.29.3-1.22,9.3-.82,11.72-.88v6.74M371.81,230.92c-.6,1,.95.43.46,1.53-.54.7,1.28,2.27.8.83-.96-1.52,2.98.22,2.24-.98-.44-.89-2.51-.4-2.83-1.38-.18-.55-.33-.55-.67,0M185.68,328.39l-.02,17.89c-4.65-4.85-24.74-25.18-25.29-26.92.18-.29.06-.37-.25-.17-.32.2-1.83-.92-3.36-2.47-2.76-2.8-2.77-2.83-1.29-3.11.82-.16,1.4-.12,1.27.08-.18.52,1.65,3.73,1.28.82-.06-3.39.17-4.15,1.32-4.45.65-.17,1.05-.1.89.15-.59.11,2.14,2.91,1.75,1.84-.89-1.58,2.54.71,1.58-1.4-.23-.89-.09-1.11.57-.86.53.57,3.33-1.05,1.5-.51-.7.23-1.02.02-1.02-.66.13-1.8-2.13,2.35-2.16,2.16-.35.25-2.12-1.84-2.58-2.3.51.03,2.63-.23,2.04.68-.55,1.04,1.17-.27.62-.72-.34-.88,1.07-.53,1.82-1.45,2.22-1.71-3.53,1.77-3.47.29-.51-.55-.48-.61.13-.27,1.32.75,1.91-.98.78-2.31-2.15-2.34,1.54.74,1.69,1.03.65.5,2.47-1.6,1.08-2.03-.67-.47-.62-.53.23-.25.7.49,2.86-.1,2.39,1.03-.5.99,1.49-.22.28-1.06-.61-.73-.49-.81.79-.49.83.21,1.65.14,1.82-.14.34-.76-3.93-.72-3.71,0,0,.34-.17.46-.38.25-.79-.79,1.1-2.15,2.49-1.8.87.22,1.4.09,1.4-.33,0-.38.23-.54.52-.36.24.57,2.34-1.53,1.45-1.25-.37.22-.82.02-1-.45-.53-1,.88-1.27.49-2.08-.41-.66-2.1-.04-3.11,1.15-.63.75-.7.76-.35.04.04-.84,3.33-3.22.87-2.93-9.37-11.34,14.09,12.98,16.95,15.53l-.02,17.89M166.79,300.34c-1.71,1.53-.51-2.71.21-1.19.27.44.18.95-.21,1.19M173.11,300.24c-.2.32-.17.89.06,1.27.69,1.18-1.86-.62-1.14.83,1.5,2.45,2.57-4.26,1.07-2.1M153.13,312.06c-.17.28.01.5.41.5s.54.18.32.4c-.54.55-3.94-2.79-3.52-3.46.49-.73,3.27,2.08,2.79,2.57M158.75,311.68c-.15,1.04,2.54,1.34,1.17,0-.78-.87-1.15-1.39-1.17,0M158.75,313.99c-.25.59,1.5,2.17.89.94-.27-.43-.12-.96.35-1.26,1.44-.84-1.52-.63-1.24.32M216.84,318.75c.53-.27.5-.15-.08.36-.62.1-1.73,4.05-.69,2.91.38-.56.66-.6.94-.14.47,1-1.63,1.19-1.42,2.32,0,.82.09.84.55.1.94-1.28,1.47-.03.56.99-.44.57-.57.85-.29.61.3-.81,2.77,2.32,2.55,1.31-.46-1.32,2.83-1.43,3.33-.12.3.8.23.85-.36.27-2.93-2.44-3.52,4.54.38,4.29,2.12.14,1.55,1.32,2.92,1.05,1.06-.34.5-1.51-.33-1.07-.3.18-.54.06-.54-.28-.15-1.87,2.91,1.72,3.65.01.48-.52.5-.66.06-.41-.49.6-1.75-.99-1.06-.65.27.25,1.1-.13,1.85-.84,1.75-1.74.9.21,2.09-.25.84-.17-4.37,4.88-4.43,4.04-.23.71-8.83,10.13-11.56,12.43.06-4.53-.1-26.85.59-27.31.27.43.84.59,1.28.37M223.35,330.73c-1.22,1.48-1.77-1.67-2.25-2.24-.24-.21-.27.07-.07.62.43,1.19-.5,1.99-.95.82-.92-3.3,3.34-.52,3.26.8M122.72,357.72c2.38.85-2.31.37-2.05-.13,0-.56.52-.53,2.05.13M123.91,360.1c.41.67,2.03.74,2.03.09.16-.49-2.42-.9-2.03-.09M121.52,361.86c-.58,2.38,1.21.14,2.07-.2,1.32-.64-2.15-.37-2.07.2M256.87,364.23c.77.81-1.71.23-1.09,1.32.35.91-4.45,1.06-5.1.17-.2-.28-.53-.23-.74.1.03,1.49,4.73,1.25,3.15,3.66-.37,1.31-.3,1.73.29,1.73.52-.25,2.98,1.28,2.52-.05-.26-1.13-2.2-.13-2.22-1.35-.21-.94,2.1-.96,2.06-.37-.53.86,1.44,2.45,2.58,2.09.69-.22,1.21-.13,1.21.22s.72,1.27,1.6,2.09c1.82,1.41.6,2.14.11.76-.28-1.3-1.34,3.01-1.09,3.96.29-1,3-3.91,2.51-1.75-.18.48-.59.87-.89.87s-.39.26-.2.59c.4.87-1.07.4-.88,1.6,0,.83.16.78.91-.29.87-1.25,3.19-1.84,3.19-.82,0,.27.39.49.88.49,1.06,0,1.19-.96.15-1.02-.58-.04-.58-.11,0-.34.92-.37,2.5,1.17,2.5,2.43,0,.55.27.79.65.55.36-.22.82-.15,1.02.17.71,1.08,3.6,1.45,3.6.47,0-.5.51-.89,1.17-.89,1.31-.11,1.66,1.25.2.76-.6-.23-.83-.14-.6.24-.17,3.47-50.18,15.79-59.62,14.29-.23-1.3.04-20.32.11-24.97,10.62-.51,34.19-5.13,38.2-7.34.96-.56,2.87-.23,3.82.66M113.93,367.12c-.16.57,2.48,2.01,1.89,2.68-1,.81-3.62-4.82-2.29-3.59.22.22.4.63.4.91M247.83,366.34c-.21.26,2.69,2.71,2.89,2.11.21-.26-2.69-2.71-2.89-2.11M251.46,369.11c.47,3.2,1.77-1.29.46-1.42-.32,0-.53.64-.46,1.42M112.67,372.65c-1.02,1-2.28-.04-1.73.75.7,1.9,5.56-3.32,1.73-.75M258.76,372.96c.33,1.44.32,1.44-.62.29-.66-.8-.91-.9-.81-.29.1.59-.24.82-1.02.69-2.49-.58,1.68,1.3.58,2.25-.31.51-.24.62.2.35.79-.19.42-2.09,1.14-1.89,1.12.69,1.88-.58,1.03-1.72-.81-1.08-.83-1.07-.51.33M185.76,374.75l.06,2.61.49-2.05c.71-2.3-.66-4.33-.55-.56M185.82,381.21c-.28,4.15,1.2-.55.52-1.48-.21-.13-.45.53-.52,1.48M265.1,381.17c-.55.92,1.97-.59,1.25.45-.22.36-.06.84.34,1.07.94.57-.33-.74.53-1.32,1.24-1.28-1.98-.77-2.12-.21M268.13,382.15c-1.23.97.74,3.06.45,1.3-.69-.6,1.3-1.53.58-1.69-.35,0-.81.17-1.03.38M185.79,390.77c.02,1.82.26,3.3.53,3.3.87-.63-.56-11.33-.53-3.3" fill="#d4af37" fill-rule="evenodd"/>
      <path id="path1" d="M-99.65,205.83v300.26H500.35V-94.43H-99.65V205.83M186.88,19v13.74l-3.37.36C41.53,48.3-19.47,219.83,81.1,321.03c27.47,27.64,73.37,49,105.31,49,.25,0,.46,6.07.46,13.49v13.49h-2.53c-22.6,0-62.14-12.95-86.83-28.45C-39.84,282.38-21.5,76.58,128.82,17.5c17.18-6.75,39.46-11.68,54.98-12.15l3.08-.09v13.74M225.35,6.14c116.78,14.47,193.41,127.17,165.12,242.86-19.72,80.65-90.3,141.47-171.51,147.77l-5.13.4v-13.57c0-10.63.16-13.57.75-13.57,34.11,0,82.91-23.91,109.53-53.66,73.24-81.85,55.09-205.08-38.43-261.05-20.25-12.12-53.01-22.5-71-22.5-.72,0-.85-2.14-.85-13.78V5.26h2.22c1.22,0,5.4.4,9.3.88M138.99,142.63l-47.91,47.95h-11.86l-.02-13.05-.02-13.05,53.7-53.83,53.7-53.83.16,18.92.15,18.93-47.91,47.95M321.64,177.83v12.75h-12.2l-47.79-47.94-47.79-47.94v-18.77s-.02-18.77-.02-18.77l53.91,53.96,53.91,53.96v12.75M217.35,156.86v24.92h51.56v34.02h-51.56v49.85h-34.86l.16-24.92.16-24.92h-51v-34.02h50.98v-49.85h34.57v24.92M139.31,262.38l47.56,47.75v38.41l-53.88-53.91-53.88-53.91.24-12.9c.13-7.1.25-12.97.27-13.05s2.76-.15,6.08-.15h6.05l47.56,47.75M321.64,227.38v12.76l-53.91,53.95-53.91,53.95v-38.28l47.81-47.57,47.81-47.57h12.19v12.76" fill="#0b0b0b" fill-rule="evenodd"/>
      <path id="path2" d="M255.72,14.06c.64.28,1.57.5,2.05.5.55,0,.45-.19-.29-.5-.64-.28-1.57-.5-2.05-.5-.55,0-.45.19.29.5M31.53,102.14C13.63,132.83,3.21,176.13,5.68,209.64c.49,6.61.58,7.04.66,3.23.09-4.01.18-4.3.96-3.26.72.95.86.98.86.19,0-2.5,2.89-3.33,2.97-.85.04,1.24.06,1.24.54.11.74-1.72.69-2.05-.34-2.05-1.35,0-.78-1.91.63-2.11,1.15-.16,1.15-.15.03.68-.99.73-1.01.84-.15.84.64,0,.99.47,1,1.32,0,1.22.09,1.19,1.15-.43.7-1.07.94-1.96.61-2.29-.33-.33-.32-.96.04-1.62.78-1.46,1.44-1.36,1.56.23.07.92-.05,1.07-.39.52-.31-.51-.62-.57-.86-.18-.21.33-.11.78.22.98.33.2.5.95.39,1.65-.12.71-.1.95.04.55.32-.93,1.17-.95,1.47-.04.14.42.54.5,1.03.2.61-.38.49-.61-.54-.99-.98-.36-1.18-.69-.74-1.22.33-.4.62-.93.63-1.18.1-1.58,1.12-2.33,1.51-1.11.22.7.66,1.27.97,1.27.35,0,.33-.45-.05-1.16-.5-.94-.45-1.1.25-.83.48.18,1.03.84,1.23,1.45.19.61.78,1.12,1.3,1.12.79,0,.76-.14-.18-.83-.63-.46-.95-1.02-.73-1.24.23-.23.84.02,1.36.54,1.2,1.2,1.84,1.24.85.06-.62-.74-.58-.83.18-.54.72.28.85.06.6-1.01l-.32-1.37,1.02,1.38c.86,1.16.89,1.48.21,1.96-.62.44-.57.5.24.24,1.14-.37,1.23,1.28.12,2.16-.32.25.38.29,1.57.09,2.03-.35,2.16-.28,2.35,1.3.11.92.38-3.34.6-9.47.91-25.32,6.98-51.7,15.96-69.46.93-1.84,1.46-3.69,1.31-4.63l-.24-1.56-.09,1.62c-.1,1.81-2.42,1.11-2.44-.73,0-.79-.07-.79-.58,0-.31.48-.57,1.27-.57,1.76,0,.63.13.68.45.18,1.01-1.59,2.12.2,1.41,2.26-.53,1.54-.63,1.63-.49.44.12-1-.1-1.51-.65-1.51s-.74.46-.57,1.35c.14.74.03,1.21-.24,1.04-.28-.17-.54-1.28-.58-2.47-.05-1.36-.17-1.68-.33-.85-.15.79-.68,1.32-1.32,1.32-1.25,0-1.83-1.17-1.39-2.84.26-.99.1-1.13-.97-.85-1.08.28-1.23.63-.94,2.16.25,1.31.19,1.57-.23.94-1.39-2.12.21-4.82,2.48-4.22.24.06.44-.14.44-.45s.4-.42.88-.23c1.05.4,1.22-1.26.2-1.9-.37-.23-.54-.18-.36.11.17.29-.58.96-1.67,1.48-1.71.82-1.98.83-1.98.08,0-.55-.34-.74-.93-.51-.59.23-.83.09-.66-.38.15-.4.63-.64,1.07-.51s1.25.34,1.78.5c.58.17,1.24-.21,1.63-.94.54-1.01.5-1.16-.27-.86-.56.22-.85.07-.75-.38.09-.4-.23-.85-.71-1-.52-.16-.64-.07-.29.22,1.08.89,1.07,2.74,0,2.32-.53-.21-1.1-.37-1.25-.37s-.12-.26.08-.59c.2-.32.1-.59-.22-.59s-.76.28-.96.62c-.26.42-.65.39-1.23-.09-.47-.39-1.69-.7-2.73-.7-1.04,0-1.42-.11-.85-.25.57-.14.86-.54.64-.88-.23-.38-.12-.46.29-.21.39.24.71.04.75-.5.04-.5.14-1.18.22-1.5.08-.32.18-.87.22-1.21.04-.34.38-.43.75-.2.45.28.52.16.2-.35-.38-.61-.62-.57-1.17.19-.39.53-.89.77-1.11.55-.23-.23-.22.08.01.69.29.77.21.97-.26.68-.38-.23-.69-.14-.69.22,0,.42-.29.38-.82-.11-.7-.65-.7-.82,0-1.23.45-.26.82-1.12.82-1.91s.25-1.44.55-1.44.45.53.32,1.19c-.13.65.02,1.03.33.85.76-.47.7-1.88-.11-2.38-.37-.23-1.14.21-1.75.99-.92,1.2-1.08,1.25-1.09.34-.02-1.37,1.09-3.45,1.65-3.1.24.15.43-.24.43-.86s-.24-1.13-.53-1.13-.17-.45.27-.99c.55-.67.57-.85.07-.55-1.36.82.41-2.81,1.89-3.87.33-.24.39-.43.14-.44-.25,0-.18-.54.17-1.18,1.62-3.03-.23-.7-2.41,3.05M30.86,106.13c.05.64-.17,1.17-.5,1.17s-.44.23-.27.5c.17.27-.07,1-.53,1.61-1.11,1.46-1.12.19-.03-2.42.98-2.34,1.21-2.49,1.33-.86M51.54,117.42c-.97,1.69-1.77,3.29-1.77,3.55,0,.26-.2.35-.45.2-.24-.15-.48.38-.52,1.18-.05.8-.03,1.36.05,1.26.65-.88,4.91-9.27,4.71-9.27-.14,0-1.05,1.38-2.02,3.08M123.29,120.35l-5.85,6.01,6-5.85c3.3-3.22,6.01-5.92,6.01-6.01,0-.42-.73.27-6.16,5.85M30.37,115.73c.52.63.38,1-.66,1.68-1.25.82-1.33.79-1.33-.48,0-.86.2-1.15.56-.8.91.91,1.7.63.91-.32-.4-.48-.6-.88-.44-.88s.59.36.96.81M34.96,116.34c-1.31,1,.64,1.78,2,.81.6-.42.52-.48-.29-.21-.81.26-1,.13-.75-.53.41-1.06.37-1.07-.96-.06M34.08,119.89c.51-.19,1.05-.13,1.22.13.17.27-.57.5-1.64.52-1.43.02-1.86-.18-1.62-.79.22-.57.44-.62.72-.17.22.36.82.5,1.32.3M43.32,121.67c-.43.81-.63,1.62-.45,1.8.19.19.52-.23.74-.92.26-.83.71-1.14,1.31-.91.75.29.78.2.17-.54-.94-1.13-.84-1.16-1.77.57M37.45,121.82c-.02,1.04-1.02,2.02-1.42,1.38-.22-.36-.1-.65.25-.65s.49-.26.29-.59c-.2-.32-.08-.59.26-.59s.62.2.61.44M41.23,123.48c.25.98.17,1.38-.23,1.14-.91-.56-.73.03.25.85.74.61.85.4.78-1.39-.04-1.16-.33-2.11-.63-2.11s-.38.68-.17,1.51M385.12,139.56c.07.81.28,1.73.47,2.05,1.37,2.33,1.1,3.78-.81,4.33-1.05.3-1.53.58-1.07.61.65.04.61.22-.19.81-.97.71-.96.75.14.75.64,0,1.06-.18.92-.39-.37-.6,1.47-1.93,1.96-1.41.23.25.09.57-.31.72-.4.14-.73.53-.73.86s.34.47.75.31c.45-.17.75.15.75.81,0,.72-.2.9-.58.52-.81-.8-1.68-.72-1.16.11.27.44.12.57-.43.36-.47-.18-1.35.04-1.97.49-.61.45-.91.82-.67.82s.03.42-.48.93c-.51.51-.81,1.11-.67,1.34.14.23-.25,1.06-.86,1.86-.61.8-1.12,1.1-1.13.68,0-.43-.31-.58-.69-.35-.44.27-.52.16-.21-.33.31-.51.2-.66-.35-.46-.45.16-.76.55-.7.86.06.31-.28.56-.76.56s-.74-.34-.56-.81c.19-.5.06-.65-.36-.4-.37.23-.99-.03-1.39-.57-.66-.91-.74-.89-1.02.16-.21.8-.06,1.05.51.83,1.07-.41,1.8,1.55.81,2.16-.89.55-2.46.09-2.04-.59.16-.26-.08-.6-.52-.77-.58-.22-.72.03-.49.91.19.73.08,1.08-.26.86-.32-.2-.58.02-.58.49,0,.65.19.69.81.17.56-.47.99-.48,1.42-.06.43.43.39.75-.12,1.06-.47.29-.58.21-.31-.23.23-.37.14-.68-.2-.68s-.62.26-.62.59-.56.59-1.24.59c-.87,0-1.13.27-.89.91.2.52.1.76-.23.55-.32-.2-.58-.08-.58.26s-.31.62-.68.62-.52-.16-.32-.36c.2-.2-.02-.75-.49-1.22s-1.15-2.03-1.51-3.47c-1.43-5.68-.98-1.75.65,5.68,4.77,21.75,5.28,46.45,1.4,67.89-.49,2.69-.73,5.04-.55,5.23.19.19.34-.23.34-.93s.23-1.27.51-1.27.51-.59.52-1.32c.03-4.5.65-5.96,1.55-3.63.2.52.1.76-.23.55-.32-.2-.58-.06-.58.3,0,.4.48.51,1.2.28.66-.21,1.55-.09,1.98.27.59.49.86.44,1.11-.2.39-1.01,2.05-.88,2.72.2.26.42.75.6,1.08.39.34-.21.78-.11.98.22.2.33-.16.6-.81.6s-1.41-.41-1.69-.92c-.46-.82-.6-.81-1.35.11-.46.57-.52.84-.14.61.41-.25.85.08,1.08.83.28.89.57,1.06,1.02.61.45-.45.85-.45,1.41.01.57.47.78.47.78-.01,0-.36.46-.65,1.03-.65.88,0,.9.09.15.58-.59.38-.63.57-.15.58,1.22.02,1.61-.25,1.44-.97-.09-.38.11-.85.44-1.06.37-.23.51.32.38,1.43-.11.99.09,1.97.45,2.18.36.21.48.18.27-.06-.22-.24-.12-1.23.22-2.2.58-1.66,1.61-1.4,1.61.4,0,.32-.26.19-.57-.29-.31-.48-.57-.59-.58-.24-.02,1.13.7,1.39,1.97.71,1.12-.6,1.16-.57.44.31-.69.84-.68.98.1.98.5,0,1.39.16,1.98.35.62.2.83.14.49-.15-.32-.27-.67-.87-.77-1.33-.15-.69-.03-.7.75-.06.51.42,1.09.6,1.3.39s.07-.38-.31-.38-.68-.3-.68-.66c0-.47.24-.45.84.04.46.39.73,1.01.58,1.39-.15.4.33.73,1.15.77,1.55.09,1.56.02,3.38-14.45,1.65-13.11.81-36.15-1.9-52.49-1.65-9.95-7.81-33.73-7.37-28.44M88.29,157.01l-8.05,8.07v24.32h10.86l8.49-8.57c4.67-4.71,7.96-8.3,7.31-7.97-.65.33-1.68,1.15-2.29,1.83-.74.82-1.53,1.12-2.34.9-.98-.27-1.05-.22-.34.28.74.52.47.99-1.61,2.88-1.37,1.24-2.29,2.47-2.05,2.74.24.26.11.29-.3.06-.4-.23-.73-.85-.73-1.36s.18-.77.39-.55c.62.62,2.49-1.39,2.14-2.3-.17-.45-.55-.68-.84-.5-.29.18-.52.05-.52-.3,0-.94,1.16-.74,1.54.26.18.48.58.73.87.54.29-.18.34-.64.1-1.02-.24-.38-.47-1.35-.52-2.16-.05-.81-.12-1.68-.17-1.94-.04-.26-.75.27-1.58,1.17l-1.5,1.65,1-1.63c.55-.9.83-1.8.62-2s-.37-.06-.37.31-.39.68-.88.68-.88-.39-.88-.88-.41-.88-.91-.88-.74-.28-.52-.64c.22-.35,1.03-.52,1.81-.37.78.15,1.58-.02,1.78-.38.2-.36.16-.46-.11-.22-.26.24-.83.14-1.26-.22-.57-.47-1-.48-1.56,0-.43.35-1.02.44-1.32.18-1.53-1.3-3.82-1.86-3.64-.89.09.53-.22,1.08-.71,1.22-.66.19-.7.12-.13-.28.91-.64-1.18-2.84-2.13-2.25-.32.2-.77.05-1.01-.33-.25-.41-.17-.53.2-.3.34.21.73.09.85-.28.15-.46.49-.4,1.08.19.88.88,2.31.79,2.31-.15,0-.29-.44-.35-.98-.14-.65.25-.84.15-.56-.31.23-.37.15-1.15-.18-1.71-.53-.91-.6-.91-.62-.07,0,.53-.54,1.09-1.17,1.26-.63.17-1.13.13-1.1-.08.23-1.79-.19-2.94-.96-2.65-.48.18-.69.64-.47,1.01.22.37-.04.31-.59-.13-1.12-.91-1.34-1.53-.31-.9.39.24.52.16.31-.18-.22-.35.22-.53,1.08-.44,1.6.18,1.82-.27.72-1.46-.6-.64-.5-.73.57-.47,1.06.26,1.43-.04,2.01-1.65.39-1.08.93-1.83,1.19-1.66.26.16.48-.04.48-.45s1.38-2.14,3.06-3.85c1.68-1.7,2.93-3.1,2.78-3.1s-3.9,3.63-8.33,8.07M379.93,149.97c.24.81.13,1.32-.26,1.32-.42,0-.39.29.11.82,1.26,1.36,1.91-.54.73-2.14l-.96-1.32.39,1.32M377.32,153.03c-.8,1.49-.75,1.8.22,1.42.45-.17,1-.03,1.21.32.44.72,1.48.28,1.48-.62,0-.32-.31-.4-.69-.16-.45.28-.57.11-.33-.5.52-1.36-1.2-1.77-1.9-.45M313.44,158.81c0,.22.8,1.24,1.77,2.28,1.32,1.41,1.7,2.28,1.49,3.44-.37,2.04-.5,2.13-2.15,1.41-1.33-.58-1.34-.6-.09-.36.72.14,1.47.02,1.65-.28.18-.29.02-.53-.36-.53-.49,0-.45-.29.11-.99.44-.54.5-.81.12-.58-.38.23-.83.08-1.01-.33-.18-.41-.27-.24-.2.38.07.61-.24,1.24-.68,1.4-.45.16-.66.04-.48-.26.18-.3.12-.89-.14-1.31-.33-.54-.59-.57-.88-.12-.22.36-.07.65.34.65.56,0,.57.17.06.68-.45.45-.49,1.02-.12,1.73.36.68.35,1.18-.03,1.41-.32.2-.59.08-.59-.26s-.29-.62-.65-.62c-.39,0-.51.56-.29,1.41.28,1.13.15,1.37-.67,1.22-.56-.11-1.14-.22-1.29-.24-.15-.03.05-.36.44-.75.87-.87.91-1.64.08-1.64-.34,0-.47.25-.28.55.18.3.05.72-.3.94-.42.26-.3.76.37,1.51.87.96.88,1.12.1,1.12-.5,0-1.07.42-1.26.93-.59,1.54-.41,1.99.65,1.58.89-.34.91-.28.15.54-.71.76-.94.79-1.31.14-.25-.44-.91-.65-1.47-.48-.87.27-.86.2.09-.58.6-.49.95-1.29.76-1.77-.2-.52.07-.98.66-1.15.55-.15.2-.21-.77-.13-1.61.14-1.76.34-1.83,2.44-.11,3.59-.16,3.76-1.19,3.76-.9,0-.9.08,0,1.07.8.89.82,1.07.12,1.07-.47,0-.73-.2-.58-.45.15-.25,0-.62-.33-.82-.33-.21-.46-.61-.29-.89s-.2-.79-.83-1.13c-.83-.44-1.27-.43-1.57.06-.24.39-.16.52.19.3.33-.21.75.16.92.82.3,1.13.18,1.12-2.24-.3-1.72-1.01-2.68-1.29-2.95-.85-.25.4-1.77-.66-3.99-2.78-1.98-1.88,1.02,1.26,6.66,6.98l10.25,10.4h10.85v-24.44l-3.52-3.27c-1.93-1.8-3.51-3.1-3.51-2.88M85.81,165.92c-.24.76.13,1.24,1.34,1.74.92.38,1.68,1.11,1.68,1.62,0,.8-.09.81-.63.07-.35-.47-1.16-1.15-1.81-1.5-.67-.37-1.18-1.28-1.2-2.12-.01-.81.19-1.33.46-1.17.27.17.34.77.16,1.35M82.74,168.93c-.23.89-.45,1.02-.79.47-.5-.82-.19-1.69.61-1.69.27,0,.35.55.18,1.22M94.16,170.71c-.13.91.04,1.77.39,1.91.34.14.05.22-.65.19-.7-.03-1.15-.27-.99-.53.16-.26-.06-.47-.48-.48-.47-.01-.37-.25.26-.62.56-.33,1.02-.88,1.02-1.23,0-.41-.29-.39-.85.07-.69.57-.83.49-.76-.43.06-.8.4-1.05,1.19-.84.84.22,1.05.69.86,1.95M97.18,175.22c.93.31.77,1.09-.22,1.09-.47,0-.72-.22-.55-.49.17-.27.02-.49-.32-.49s-.62.39-.62.86c0,.55-.34.73-.94.5-.87-.33-.87-.41,0-.89.58-.33.97-1.36,1-2.7l.06-2.17.48,2.04c.26,1.12.76,2.13,1.11,2.25M100,174.16c.05.68-.27,1.17-.78,1.17-.68,0-.73-.25-.24-1.17.34-.64.69-1.17.77-1.17s.19.53.24,1.17M298.49,175.94c-.16.27.28.57.98.67.71.11,1.41.59,1.57,1.07.25.75.15.77-.69.08-.63-.52-.97-.57-.97-.15,0,.36-.65.09-1.45-.6-1.5-1.3-1.5-2.45,0-1.87.47.18.72.55.56.81M268.58,198.2c0,9.19.08,12.95.18,8.36.1-4.6.1-12.12,0-16.71-.1-4.6-.18-.83-.18,8.36M216.9,183.29c.27.27,5.54.62,12.51.83,1.29.04,5.2,3.45,4.62,4.03-.19.19-.56-.01-.82-.44-.34-.55-.6-.59-.88-.12-.54.87,1.22,2.58,2.16,2.1.4-.21.34-.03-.14.4-1.29,1.14-1.06,2.83.5,3.66,1.49.8.49,2.69-1.42,2.69-.46,0-.84.26-.84.59,0,.72.38.74,1.65.06.79-.42,1-.25,1.07.88.06,1.02-.22,1.41-1.03,1.41-.61,0-1.11-.26-1.11-.59,0-.98-2.19-.66-2.59.38-.32.84-.24.86.62.15.77-.63,1.04-.65,1.23-.08.32.94,3.66.97,3.66.03,0-.53.17-.54.68-.03s.5.89-.05,1.56c-.42.51-.56,1.41-.32,2.16.32,1,.52,1.1.9.47.62-1,2.69-1.19,2.69-.24,0,.38-.34.7-.75.7s-.62-.22-.45-.49c.17-.27.02-.49-.32-.49-.81,0-.79.77.02,1.58.39.39.46,1.18.18,2.02-.26.76-.42,1.57-.36,1.8.06.23-.34.25-.88.04-.57-.22-.7-.47-.32-.6.37-.12.51-.65.31-1.16-.24-.62-.13-.8.32-.52.46.28.55.09.29-.61-.24-.63-.48-.76-.63-.32-.13.39-.49.7-.81.7s-.44-.21-.28-.47c.16-.26.02-.85-.31-1.32-.5-.7-.55-.67-.28.16.18.55.07,1.16-.24,1.35-.95.59-.62,1.44.4,1.04.66-.26.87-.11.66.46-.17.45-.6.76-.96.68-.82-.18-.87.82-.07,1.32.32.2.58.03.58-.38,0-.53.18-.56.64-.1.46.46.46.98-.02,1.88-.36.68-.42,1.24-.12,1.24s.7-.59.9-1.32c.3-1.11.46-1.18.97-.44.54.78.6.78.52,0-.22-2.05.05-3.24.56-2.44.27.43.73.83,1.02.88.29.05.45.29.37.54-.08.24.12.47.44.51.32.04.83.11,1.12.15.3.04.76.31,1.03.61.28.31.18.36-.24.11-.45-.26-.73-.07-.73.49,0,1.08.24,1.12,1.94.3,1.17-.57,1.19-.55.24.22-1.11.9.14,2.01,1.39,1.24.29-.18.53-.09.53.19,0,1.08-.76,1.22-2.06.37-.98-.64-1.4-.69-1.57-.18-.33.98-5.15.89-5.86-.12-.45-.64-.51-.6-.26.19.29.9-.32,1.03-5.66,1.2-3.29.11,3.58.25,15.26.31l21.24.12v-31.67h-25.59c-14.07,0-25.44.15-25.26.33M227.02,185.47c.21,1.99.23,2.03,1.17,2.39.72.28.7.05-.14-1.26-.75-1.17-.79-1.41-.15-.91.9.71,1.15.78,2.66.78.5,0,.75.27.55.6-.2.33-.68.42-1.06.21-.51-.28-.5-.18.02.38.58.62.87.63,1.62,0,1.12-.93.18-2.36-1.56-2.36-.63,0-1.61-.25-2.19-.56-.88-.47-1.03-.35-.92.73M224.96,186.15c0,.47.27,1.01.6,1.21.33.2.42.65.2,1.01-.24.39-.12.47.31.2.53-.33.54-.64.04-1.24-.37-.44-.5-1.08-.29-1.41.21-.34.1-.61-.24-.61s-.62.38-.62.85M226.92,189.7c0,.5.24.83.53.73.29-.1.53-.43.53-.73s-.24-.64-.53-.74c-.29-.1-.53.23-.53.74M229.06,189.4c0,.53,1.64,2.35,2.13,2.35.16,0,.12-.26-.08-.59-.2-.32-.1-.59.22-.59.88,0,1.35,1.04.66,1.47-.33.21-.46.62-.27.91.18.3-.04.39-.5.22-.51-.19-.95.14-1.14.85-.18.68.03,1.3.48,1.47.5.19.67,0,.46-.55-.4-1.04,1.86-1.19,2.5-.16.29.46.11.56-.55.31-.54-.21-.98-.1-.98.23,0,.8,2.48.42,2.76-.42.12-.36-.36-.81-1.06-.99-.85-.22-1.16-.63-.92-1.25.61-1.6-.47-3.42-2.15-3.6-.86-.09-1.57.06-1.57.34M369.33,200.55c0,4.03.09,5.68.21,3.67.11-2.02.11-5.31,0-7.33-.11-2.02-.21-.37-.21,3.66M29.46,202.49c.47-.28.46-.13-.04.48-.46.57-.51,1.09-.16,1.45.36.36-.02.61-1.04.68-1.09.08-1.35-.04-.81-.39.55-.35.6-.63.15-.91-.36-.22-.65-.67-.65-.99s.26-.42.59-.22c.32.2.61.02.63-.41.04-.6.11-.6.34-.03.16.41.6.55.98.33M17.75,204.38c-.56,1.19-.5,1.32.54,1.12,1.57-.3,1.62-.4.8-1.52-.63-.86-.76-.82-1.34.39M8.93,207.33c-.58.44-1.46.79-1.94.78-.53-.01-.36-.27.44-.66.72-.35,1.32-.88,1.32-1.17s.28-.36.62-.15c.39.24.23.68-.44,1.19M20.33,206.21c.4.16.57.57.37.89-.22.35.15.32.87-.07,1.6-.86,1.57-.94-.37-1.04-.89-.05-1.28.05-.87.22M243.61,206.88c.87-.68.89-.66.18.26-.92,1.17-1.87.84-1.77-.62.06-.86.1-.85.34.07.23.9.42.94,1.25.29M18.5,208.63c-.16.26-.09.82.17,1.23.36.59.54.56.81-.16.37-.96-.48-1.89-.99-1.07M239.86,208.84c-.23.36.06.92.62,1.24.77.43.85.69.3,1.03-.4.25-.61.81-.46,1.25.18.55.5.35,1.02-.6.64-1.2.61-1.48-.21-1.94-.53-.29-.81-.78-.62-1.09.19-.3.21-.55.05-.55s-.48.3-.7.66M30.58,214.33c0,1.29.13,1.75.27,1.02.14-.73.13-1.79-.01-2.35-.15-.56-.26.04-.25,1.33M221.3,214.45c.72.14,1.91.14,2.64,0,.72-.14.13-.25-1.32-.25s-2.04.11-1.32.25M308.75,216.68c-.5.61-.53.88-.07.88.36,0,.66-.27.66-.61,0-.37,1.48-.55,3.81-.47,2.1.08,3.81.38,3.81.68s.4.2.89-.2c1.43-1.18,1.66-.35,1.7,6.17.02,3.38.24,6.15.48,6.15.24,0,.44-3.03.44-6.74v-6.74h-5.49c-4.17,0-5.67.21-6.22.88M369.98,231c-1.02.4-.93.51.73.88,1.04.23,2.05.66,2.23.96.18.3.78.53,1.32.52.54-.01-.03-.5-1.29-1.1-1.45-.69-1.98-1.2-1.47-1.4.45-.18.55-.33.23-.33-.32,0-1.11.2-1.76.46M385.25,235.68c-.43.7.55.87,3.86.68l2.13-.13-.2,2.83c-.17,2.33-.12,2.52.29,1.07,1.14-4.07.9-4.58-1.96-4.26-1.43.16-2.85.04-3.16-.27-.36-.36-.7-.33-.95.08M83.17,244.69c0,.09,2.04,2.13,4.54,4.54l4.54,4.38-4.38-4.54c-4.07-4.22-4.7-4.81-4.7-4.38M137.95,261.54c2.89,2.9,5.38,5.28,5.54,5.28s-2.07-2.38-4.96-5.28c-2.89-2.9-5.38-5.28-5.54-5.28s2.07,2.38,4.96,5.28M256.6,267.11c-2.4,2.42-4.23,4.4-4.07,4.4s2.26-1.98,4.66-4.4c2.4-2.42,4.23-4.4,4.07-4.4s-2.26,1.98-4.66,4.4M168.97,294.21c3.93,4.09,4.03,4.27,3.03,5.37-.62.68-.79,1.28-.44,1.5.32.2.97-.19,1.44-.86.54-.77,1-.99,1.25-.6.21.35.12.63-.21.63s-.43.44-.23.98c.28.73.17.85-.46.47-.71-.43-.72-.36-.02.5,1.02,1.26.69,1.62-1.04,1.17-.74-.19-1.07-.52-.73-.73.36-.22.08-.71-.68-1.19-1.18-.74-1.23-.72-.49.17.56.67.59.97.12.97-.38,0-.64.33-.59.73.25,1.92-.12,3.37-.85,3.37-.45,0-.97.59-1.17,1.32-.3,1.1-.46,1.17-.94.44-.52-.79-.85-.43-.66.73.07.45-.82.65-2.13.48-.91-.12-.96,1.25-.08,2.13.93.93.12,1.93-1.56,1.93-1.45,0-1.91-.8-.84-1.47.32-.2.58-.06.58.31s.28.57.63.46c.87-.29.71-1.37-.19-1.28-2.57.28-3.28.88-2.29,1.93.53.56,1.62.97,2.41.89,1.27-.12,1.33-.05.45.59-.54.4-.79.95-.56,1.23.24.28-.03.15-.59-.28-.86-.66-1.03-.65-1.05.02-.02.44-.39.01-.83-.95l-.8-1.76.32,2.21c.37,2.63-.72,2.54-3.55-.27-.91-.91-1.83-1.65-2.03-1.65s1.46,1.85,3.7,4.11c3.42,3.45,4.15,3.95,4.51,3.08.36-.85.42-.8.3.25-.1.92,1.33,2.78,5.04,6.57,2.85,2.91,5.04,5.52,4.86,5.8-.17.28,2.69,3.51,6.36,7.17l6.68,6.66.04-18.43.04-18.43-10.41-10.26c-5.72-5.64-8.58-8.36-6.35-6.03M167.86,302.05c.15.24-.06.57-.46.74-.58.24-.59.31,0,.34.4.03.73.27.73.55s-.66.38-1.47.23c-.89-.17-1.46-.01-1.46.41,0,.38-.32.5-.73.27-.4-.23-.53-.2-.28.08.72.79,2.91.97,2.43.2-.24-.38-.11-.56.3-.43,1.16.39.88,1.33-.61,2.1-.79.41-1.02.72-.52.72,1.85,0,3.71-2.05,3.03-3.32-.41-.77-.43-1.37-.05-1.75.38-.38.28-.58-.3-.58-.48,0-.75.2-.6.44M171.54,305.57c-.79,2.26-1.1,2.17-.92-.26.09-1.23.41-1.88.83-1.71.5.19.52.73.09,1.98M162.12,307.13c-.12.24-.19.84-.16,1.32.03.48-.17,1.04-.45,1.24-.28.2-.06.53.49.74.78.3.93.13.69-.8-.17-.65-.22-1.18-.12-1.18s.61-.16,1.12-.36c.63-.24.94-.01.97.73.03.77.14.84.37.26.48-1.23-2.34-3.12-2.91-1.96M149.96,309.81c0,.1.86.96,1.9,1.91l1.9,1.72-1.72-1.91c-1.6-1.78-2.09-2.18-2.09-1.72M160.9,319.4c-.17.17-.62.12-1-.11-.51-.32-.48-.55.11-.92.78-.49,1.54.38.89,1.03M215.02,331.65l-.06,14.05,4.09-4.06c2.25-2.23,3.93-4.32,3.74-4.64-.2-.32-.1-.41.22-.22.31.2,2.4-1.54,4.63-3.85,2.23-2.31,3.51-3.75,2.84-3.2-1.39,1.15-2.27,1.32-1.65.33.26-.42.16-.52-.27-.25-.38.23-.53.68-.33,1,.2.32-.34,1.22-1.19,2.01-1.71,1.59-2.63,1.93-1.49.56.96-1.16.08-1.13-1.22.04-.93.85-1.05.82-1.4-.29-.21-.67-.65-1.22-.97-1.22s-.4.33-.17.73c.32.56.24.57-.33.05-.41-.38-1.04-.62-1.4-.54-.36.08-.46.04-.22-.09,1.06-.59.34-1.31-.73-.73-.79.42-1.17.43-1.17.02,0-.33.39-.61.88-.61,1.44,0,1-.79-1.23-2.24-1.99-1.29-2.04-1.41-1.02-2.24.59-.48.77-.73.39-.54-.91.45-1.34-1.13-1.14-4.21.09-1.36-.04-2.8-.29-3.2-.24-.39-.47,5.61-.5,13.33M218.15,325.9c.28.47.09.73-.54.73-.81,0-.85.16-.26.88.91,1.1,2.34,1.15,2.34.07,0-.44-.45-1.17-.99-1.61-.67-.55-.85-.57-.55-.07M221.65,329.66c.11.72.46,1.4.78,1.5.85.29.71-1.24-.2-2.09-.64-.6-.74-.49-.58.58M179.81,340.21c7.33,7.65,6.59,7.38-1.15-.41-3.38-3.4-5.75-6-5.26-5.77.48.23,3.37,3.01,6.41,6.19M123.47,353.75c.87.42,1.22.97.99,1.57-.29.76-.22.79.42.15.8-.81-.7-2.51-2.13-2.41-.34.02-.02.33.72.69M126.85,355.84c.58.68,1.27,1.1,1.54.93.27-.17.64.11.84.61.19.5.59.77.87.59.29-.18.53.08.53.57,0,.56-.33.77-.88.56-.48-.18-.88-.05-.88.31s-.46.65-1.03.66c-.88,0-.9.09-.15.58.48.31.68.61.44.65-.24.05-.77.14-1.17.2-.4.07-1.33-.24-2.05-.67-.72-.44-1.32-.57-1.32-.29s.59.8,1.32,1.15.96.65.51.68c-.64.03-.66.22-.1.89.51.61.53,1.15.09,1.91-.37.63-.62.75-.63.29,0-.42-.26-.62-.56-.43-.3.19-.72-.23-.94-.92-.25-.79-.1-1.44.4-1.76.61-.38.62-.51.05-.51-.41,0-1.01.68-1.33,1.52-.34.89-.9,1.4-1.35,1.23-.42-.16-.77.06-.77.5s.22.66.49.5.49.1.49.59c0,.97-1.65.65-2.55-.49-.3-.38-.36-.22-.17.4.19.59.03,1.03-.38,1.04-.45,0-.39.22.17.58.48.31.62.58.29.59-.32.01-.19.27.29.59.68.44.51.57-.76.58-1.37,0-1.51.14-.88.83.42.45.91.73,1.1.61.19-.11.34.16.34.62s-.15.8-.34.79c-1.47-.16-2.4.2-2.04.78.28.45.16.52-.35.2-.61-.38-.57-.62.19-1.17.53-.39.8-.86.6-1.06-.94-.95-2.18,1.47-1.39,2.73.71,1.15.69,1.19-.19.45-.84-.69-.97-.67-.97.15,0,.52-.43.95-.95.95-.78,0-.82-.16-.22-.88.63-.76.48-.83-1.11-.51-1.61.32-1.8.23-1.48-.73.27-.84.22-.91-.22-.28-.48.67-1.29.44-4.6-1.32-2.21-1.18-3.38-1.68-2.6-1.11,3.46,2.52,10.85,6.02,12.01,5.69.88-.24,1-.18.42.21-2.07,1.44,21.35,10.44,38.3,14.72,9.68,2.45,31.27,5.79,32.1,4.96.07-.07.05-5.82-.04-12.78l-.17-12.66h-2.07c-10.73,0-35.92-6.43-50.82-12.97-2.95-1.3-5.73-2.51-6.17-2.7-.5-.22-.4.12.25.89M128.38,362.36c.65-.35,1.34-.47,1.54-.27.2.2-.22.52-.92.7-.71.18-1.14.57-.97.85.18.28-.09.36-.59.16-.5-.19-.89-.78-.86-1.31.03-.6.16-.69.34-.24.22.54.59.57,1.47.1M253.05,363.57c-3.46,2.03-25.76,6.47-36.21,7.21l-1.96.14v12.61c-.02,6.94.14,12.58.34,12.54.21-.04,2.65-.25,5.43-.48,10.71-.87,25.87-3.94,38-7.7,8.42-2.61,16.11-5.66,15.74-6.26-.21-.35-.5-.36-.72-.04-.34.5-4.92,2.51-5.71,2.51-.19,0-.18-.73.02-1.61.35-1.53.32-1.56-.52-.47-.49.63-.89.89-.9.59,0-.3-.27-.16-.58.33-.49.76-.57.75-.58-.1,0-.54.32-1.11.72-1.27.58-.24.58-.31,0-.34-1.14-.07-.86-1.22.29-1.23.82,0,.86-.11.21-.53-.87-.55-2.49.48-2.01,1.27.15.24-.08.44-.5.45-.54,0-.57.14-.1.44.48.31.44.64-.15,1.19-.66.62-.83.62-.88,0-.04-.42-.1-1.15-.15-1.63-.04-.48.18-1.07.51-1.31.32-.24-.02-.44-.77-.44-.75,0-1.19.25-.99.58.2.32.08.59-.26.59s-.62.29-.62.65.35.51.78.35c.43-.17.78.07.78.52,0,.96-.74,1.09-1.28.23-.2-.33-.64-.43-.97-.22-.38.24-.37-.07.04-.83.35-.66.64-1.34.64-1.49,0-.52-3.64-2.12-4.13-1.82-.26.16-.25-.5.03-1.48.28-.97.35-1.77.17-1.77s.09-.48.63-1.07c.53-.59.8-1.25.58-1.46-.57-.57-2.01.8-1.58,1.5.21.33,0,.47-.45.3-.45-.16-.76-.57-.69-.9.07-.33-.39-.46-1.03-.3-1.19.31-1.63,1.92-.53,1.92.34,0,.45-.33.25-.73-.2-.4-.02-.31.41.2.43.51,1.17.82,1.65.69.74-.2.75-.15.05.33-.96.67-2.4.29-3.37-.9-.45-.55-.81-.62-1.06-.21-.21.34-.7.61-1.08.6-.38-.01.36-.67,1.65-1.46,1.29-.79,2.21-1.47,2.05-1.49-.16-.03-.74-.13-1.28-.24-.54-.11-1.14.21-1.32.69-.19.49-.73.73-1.21.55-.6-.23-.87.04-.87.84,0,.97-.14,1.04-.79.44-1.04-.97-.91-2.95.21-3.26.77-.21.77-.16.02.36-.47.33-.69.77-.48.98.73.73,1.63-.39,1.59-1.97-.03-.87-.18-1.25-.34-.85-.16.4-.55.73-.87.73s-.41-.26-.21-.59c.2-.32-.02-.59-.48-.59s-1.15-.37-1.52-.82c-.37-.45-1.26-.71-1.98-.57-1.2.23-1.21.21-.12-.27.79-.35,1.6-.23,2.49.35,1.39.91,1.81.28.62-.92-.81-.81.02-.93,1.22-.17.44.28.63.8.41,1.16-.26.42-.05.51.6.26.89-.34.86-.5-.33-1.46-1.28-1.03-1.28-1.07-.14-1.07.65,0,1.32.33,1.48.73.19.48.31.42.34-.19.02-.51.9-1.35,1.95-1.87,1.05-.52,1.64-.96,1.32-.97-.32-.01-1,.22-1.5.52M120.29,367.44c.49.19.76.69.59,1.11-.16.42.01.96.39,1.2.51.32.48.56-.11.93-1.23.78-1.83.62-1.45-.4.2-.51.08-1.43-.25-2.05-.65-1.22-.55-1.32.82-.79M250.64,370.26c-.29,2.49-.28,2.5,1.38.84.98-.98,1.04-1.18.26-.89-.56.21-.88.18-.73-.07.16-.25.07-.81-.19-1.23-.31-.51-.56-.05-.72,1.35M253.9,369.53c.19.99,1.93,1.13,1.93.16,0-.57-.21-.63-.72-.2-.5.41-.82.41-1.03-.02-.18-.38-.25-.35-.17.07M258.65,374.03c.13.13-.14.63-.61,1.1-1.14,1.14-1.07,1.78.26,2.5,1.08.58,2.37-.78,1.54-1.62-.17-.17-.31,0-.31.38s-.4.68-.88.68-.88-.28-.88-.62.26-.46.59-.26c.32.2.59-.02.59-.49,0-1.02,1.94-1.9,2.23-1.01.11.34.5.62.86.62,1.35,0-.83-1.47-2.22-1.49-.78-.02-1.3.08-1.17.22M262.9,385.28c.19.7.13.72-.31.1-.45-.64-.62-.61-.9.15-.2.51-.69.92-1.11.92-.57,0-.55-.13.06-.52.45-.28.61-.83.37-1.22-.29-.47-.09-.64.61-.51.58.11,1.15.6,1.29,1.08" fill="#d4af37" fill-rule="evenodd"/>
      <path id="path3" d="M319.27,81.06c1.44,1.53,2.69,2.78,2.78,2.78.44,0-.03-.53-2.61-2.96l-2.78-2.62,2.61,2.79M33.75,105.4c-.14.24.09.76.52,1.16.43.4.9.53,1.05.29.15-.24-.09-.76-.52-1.16-.43-.4-.9-.53-1.05-.29M29.38,107.49c-.86,2.37-.88,2.92-.12,2.45.32-.2.59.24.59.99,0,1.06.13,1.17.55.49.34-.53.33-1.12-.03-1.55-.66-.8-.5-2.09.34-2.69.38-.27.37-.63-.03-1.03-.42-.42-.83-.01-1.31,1.34M134.71,108.92l-3.2,3.37,3.37-3.21c3.13-2.98,3.64-3.54,3.2-3.54-.09,0-1.61,1.52-3.37,3.37M31.7,107.36c-.42.68-.62,1.38-.43,1.56.18.18.33.01.33-.39s.21-.59.46-.43c.26.16.5-.22.55-.85.11-1.42.03-1.41-.91.1M34.27,109.31c.91,1.39-.58,3.27-2.22,2.81-.75-.21-.48.93.29,1.25.4.16-.06.34-1.02.4-1.71.1-1.72.12-.29.52.81.23,1.55.22,1.65-.03.1-.24.55-.3,1-.13.64.24.67.54.14,1.39-.37.6-.89.95-1.14.79-.89-.55-.46.23.56,1.01.56.43.84.56.61.29-.23-.27-.13-1.03.22-1.69.6-1.12.67-1.13,1.22-.15.42.75.36,1.18-.22,1.55-.53.34-.57.51-.1.52,1.22.02,1.48-1.17.56-2.58-.57-.88-.69-1.56-.32-1.93.37-.37.26-.57-.3-.57-.48,0-.74.22-.57.49.17.27.02.49-.32.49s-.62-.4-.62-.88.4-.88.88-.88.88-.28.88-.62.26-.46.58-.26c.32.2.59.08.59-.26s-.3-.62-.66-.62c-.43,0-.38-.35.15-.99.71-.87.68-.94-.22-.61-.56.21-1.03.13-1.03-.18s-.27-.57-.6-.57-.18.64.33,1.42M36.66,112.46c-.14.23.09.73.51,1.12.6.55.83.53,1.07-.1.32-.83-1.14-1.77-1.59-1.02M41.29,114.31c-.19.31-.8.4-1.35.2-1.06-.38-1-.29.53.88.8.61,1.01.53,1.26-.46.33-1.26.13-1.55-.44-.62M29.85,115.81c.85,1.02-.03,1.2-1.02.21-.5-.5-.59-.36-.35.57.27,1.03.52,1.14,1.47.63,1.04-.56.63-2.29-.54-2.29-.16,0,.04.4.44.88M50.99,116.6c-.35.65-.63,1.53-.63,1.96,0,.42.4,0,.89-.93.49-.93.77-1.82.63-1.96-.14-.14-.54.28-.89.93M37.44,118.76c-.75.9.85,3.15,1.66,2.34.23-.23-.1-.79-.72-1.24-.63-.46-.82-.86-.44-.9,1.5-.16,1.78-.23,2.09-.54.17-.17-.18-.35-.79-.4-.61-.05-1.41.29-1.79.74M45.68,120.18c-.45.85-.41,1.34.18,1.89.44.41.68,1.18.54,1.72-.14.54.05,1.17.42,1.39.39.24.63.09.57-.37-.26-1.88,0-2.61.62-1.67.48.75.57.73.58-.15,0-.94-.67-1.31-1.97-1.07-.28.05-.38-.58-.23-1.4.34-1.79.12-1.89-.71-.35M41.88,123.11c-.22.35-.63.48-.93.3-.3-.18-.37.12-.15.67.26.68.17.87-.3.58-.38-.23-.69-.14-.69.2,0,.98,1.05.73,1.71-.41.54-.92.6-.9.61.25.01.73-.42,1.39-1.01,1.54-.77.2-.7.29.29.34.96.05,1.32-.26,1.32-1.14,0-.81.24-1.06.73-.77.46.28.41.01-.13-.7-.47-.63-.91-1.22-.97-1.32-.06-.1-.28.1-.5.45M43.98,125.7c-.54.65-.38.75.8.52.81-.15,1.32-.51,1.14-.8-.46-.74-1.18-.64-1.94.28M384.14,143.47c-.69.69-.42,1.22.77,1.53.99.26,1.07.14.57-.81-.66-1.23-.77-1.29-1.34-.72M382.96,148.08c.18.47-.04.99-.49,1.16-.94.36-1.29,2.63-.41,2.63.32,0,.42-.26.22-.59s-.08-.59.26-.59.62-.38.62-.85.27-1.01.6-1.22.53-.06.44.33c-.09.39.12.81.47.94,1.26.47.6-1.47-.7-2.07-1.09-.5-1.28-.45-1.01.24M377.68,151.58c-.19.48-.62.88-.98.88s-.49-.24-.31-.53c.18-.29-.21-.39-.88-.22-.84.22-1.08.61-.81,1.26.22.52.41,1.26.42,1.63s.43.52.93.33c.6-.23.66-.42.2-.58-.39-.13-.7-.5-.7-.83s.4-.45.88-.26c.48.19.88.02.89-.38,0-.5.16-.48.51.08.36.56.5.35.5-.73,0-1.74-.17-1.91-.65-.65M379.47,152.68c-.54,1.42-.51,1.67.18,1.24.32-.2.59-.13.59.16,0,.94-.75,1.31-1.46.72-.47-.39-.69-.31-.69.27,0,.46.2.72.44.57.24-.15.55.06.68.46.15.44.57.15,1.05-.73.96-1.75,1.24-3.05.57-2.64-.27.17-.59-.02-.72-.41-.15-.44-.39-.3-.64.34M366.49,156.77c-.76.56-.88.92-.4,1.21.38.23.53.67.35.97-.18.3-.04,1,.33,1.57.63.97.64.98.34,0-.18-.56-.05-1.03.28-1.03s.42-.29.2-.65c-.22-.36-.04-.88.4-1.16.67-.42.66-.51-.07-.53-.78-.02-.78-.08,0-.59.48-.31.6-.57.26-.58-.34,0-1.11.35-1.7.78M370.64,157.42c.25.65.09.82-.53.58-.49-.19-1.06-.05-1.28.3-.22.35-.18.6.09.56,1.29-.22,1.98.12,1.6.79-.23.4-.2.53.08.28.75-.68.92-2.66.27-3.07-.32-.2-.42.04-.22.56M368.04,160.96c-.37.81-.48,1.46-.24,1.46.24,0,.73-.66,1.11-1.47.37-.8.48-1.46.24-1.46s-.74.66-1.1,1.47M89.29,160.71c-.21.34-.75.48-1.2.31-.9-.35-1.79,2.09-1.14,3.13.64,1.03,2.25.75,1.83-.32-.24-.62-.1-.85.39-.66.49.19.77-.29.82-1.4.07-1.81-.09-2.05-.7-1.06M89.02,162.06c0,.12-.39.55-.88.95-.72.6-.88.56-.88-.22,0-.52.4-.95.88-.95s.88.1.88.22M95.05,163.87c-.57.65-.48,1.09.44,2.18l1.16,1.36-.51-1.47c-.28-.81-.39-1.8-.25-2.2.33-.94.05-.9-.85.12M310.63,164.22c-.71,1.13-.19,1.85,1.53,2.1.61.09.62-.06.04-.76-.58-.7-.58-.97.02-1.34.59-.36.57-.53-.08-.78-.45-.17-1.13.17-1.5.77M316.09,165.34c-.19.31-.8.42-1.35.24-.85-.27-.87-.23-.13.31,1.19.85,1.57.81,1.97-.23.38-.98.05-1.19-.49-.32M91.11,166.48c-.44.71,1.96,1.88,2.81,1.38.28-.17.73.06,1.02.51.4.64.51.59.52-.22,0-.56-.39-1.03-.87-1.03s-.88-.33-.89-.73c0-.49-.2-.44-.58.15-.48.73-.66.74-1.09.08-.36-.56-.63-.6-.92-.14M86.39,167.83c.65.37,1.51,1.09,1.91,1.59.63.78.72.79.58.04-.16-.9-2.03-2.3-3.08-2.31-.32,0-.06.3.58.67M81.77,168.17c-.16.26-.08.81.18,1.22.34.55.55.42.79-.47.31-1.18-.37-1.71-.96-.76M109.53,168.11c0,.26-.66,1.24-1.47,2.18-.81.94-1.46,1.94-1.46,2.23,0,.45,1.27-.8,3.5-3.46.39-.46.39-.82,0-1.06-.32-.2-.58-.15-.58.12M307.12,168.61c-.64.72-.55.86.51.86s1.14.16.58.83c-.57.68-.48.78.49.53,1.1-.29,1.12-.4.26-1.71-.51-.77-.96-1.39-1-1.38-.04.01-.42.41-.83.88M99.03,169.43c-.03.79.55,2.08,1.27,2.88,1.04,1.14,1.1,1.37.3,1.09-.82-.29-.91-.17-.48.64.29.55.68,1.47.85,2.03.34,1.09,1.53,1.43,1.53.44,0-.32-.33-.59-.73-.6-.49,0-.44-.2.15-.58.59-.38.63-.57.15-.58-.4,0-.73-.3-.73-.67,0-.45.27-.43.88.07.66.54.88.55.88.04,0-.38.28-.52.62-.31.39.24.23.68-.44,1.19-.58.44-.78.81-.43.82,1.16.03,3.34-2.74,2.55-3.24-.46-.29-.57-.2-.3.23.25.41.03.68-.56.68-.63,0-.85-.32-.64-.88.19-.48.08-.88-.23-.88s-.57.4-.57.88c0,.73-.2.76-1.13.18-.62-.39-1-.92-.84-1.19.16-.26.58-.3.93-.09.39.24.47.12.19-.32-.24-.39-.79-.58-1.22-.42-.47.18-1.01-.33-1.36-1.28q-.58-1.57-.62-.15M303.4,169.17c-.04.16-.11.57-.15.9-.04.33-.43.83-.87,1.1-.55.34-.6.61-.15.89.36.22.65.12.65-.22s.24-.62.53-.62.46.46.36,1.03c-.1.56-.49.95-.87.86-.38-.09-.53.11-.33.44.43.7-.37.8-1.2.16-.31-.24-.04.05.62.65.65.6,1.22,1.33,1.26,1.61.04.29.14.72.21.96.08.24.13.59.11.78-.02.19.35.34.81.34.72,0,.71-.16-.07-1.01-.73-.8-.76-1.08-.15-1.32.54-.22.56-.32.06-.35-.39-.03-.56-.45-.37-.94.27-.69.53-.74,1.15-.22,1.15.95,1.05-.32-.11-1.48-.51-.51-.64-.92-.29-.92s.63-.28.63-.62-.26-.46-.59-.26c-.53.33-.84-.44-.66-1.61.08-.48-.47-.62-.59-.15M293.04,171.83c1.45,1.96,2.22,2.24,1.96.72-.09-.56-.47-.96-.83-.88-.36.08-.66-.09-.66-.38s-.4-.68-.88-.86c-.62-.24-.49.19.4,1.4M92.74,172.09c0,.36.55.69,1.22.72.67.03.89-.07.48-.23-.41-.16-.61-.48-.46-.72.15-.24-.07-.44-.48-.44s-.76.3-.76.67M307.14,172.24c-.4.14-.73.51-.73.82s.25.42.55.23c.3-.19.76.03,1.02.49.4.71.61.69,1.34-.1.76-.82.75-.89-.11-.56-.57.22-1.05.06-1.15-.38-.1-.42-.51-.64-.92-.5M296,172.7c.24.26.11.87-.29,1.37-.58.72-.58.81,0,.46.46-.27.88-.04,1.12.62.48,1.34,2.54,3.38,2.54,2.52,0-.35.26-.48.59-.28.32.2.59.05.59-.32s.4-.53.88-.35c1.14.44,1.11.23-.23-1.31-.94-1.09-1.16-1.14-1.46-.35-.2.53-.11.77.23.56.32-.2.58-.11.58.2s-.39.71-.87.89c-.9.35-2.34-1.55-2.35-3.09,0-.46-.4-.96-.88-1.11-.48-.15-.68-.07-.44.19M95.47,174.3c0,.53-.42,1.21-.94,1.5-.87.48-.87.56,0,.89.59.23.94.06.94-.45,0-.45.33-.93.73-1.08.59-.22.59-.42,0-1.05-.6-.64-.73-.61-.73.19M98.99,179.14c-.76.81-1.21,1.47-1.01,1.47s1.08-.66,1.95-1.47c.87-.81,1.32-1.47,1.01-1.47s-1.19.66-1.95,1.47M223.2,184.36c0,.13.79.51,1.76.85,1.43.5,1.76.45,1.76-.24,0-.55-.61-.85-1.76-.85-.97,0-1.76.11-1.76.24M228,184.8c1.04.66,2.82.63,2.82-.04,0-.3-.81-.53-1.79-.5-1.19.03-1.53.21-1.02.54M226.85,187.86c.74.76,1.56,1.26,1.82,1.11.57-.33-1.62-2.5-2.53-2.5-.35,0-.03.63.71,1.39M229.29,187.4c.2.51.36,1.1.36,1.32.01.53,1.14-1.25,1.16-1.81,0-.24-.42-.44-.93-.44-.62,0-.82.32-.59.93M228.86,191.48c.18.47.54.72.79.56.26-.16.33.24.16.9-.29,1.12-.35,1.13-1.09.15-.71-.95-.75-.93-.44.29.46,1.84,1.21,2.15,1.67.69.26-.83.7-1.1,1.34-.86.53.2.77.18.54-.05-.23-.23-.14-.75.19-1.15.42-.51.42-.85,0-1.11-.34-.21-.62.09-.62.68,0,.63-.18.81-.44.43-.73-1.06-2.47-1.49-2.1-.52M232.88,193.52c.2.32-.18.58-.85.58s-1.21.24-1.21.52.63.49,1.41.44c.77-.05,1.3-.26,1.17-.47-.13-.21.08-.5.47-.63.44-.15.32-.38-.32-.63-.61-.24-.88-.16-.67.18M230.93,196.88c.12.62.78,1.06,1.65,1.12,1.29.08,1.31.06.14-.19-.72-.16-1.32-.54-1.32-.86s.26-.42.59-.22c.32.2.58.08.58-.26s-.41-.62-.92-.62c-.56,0-.85.4-.73,1.03M235.9,199.62c-.19.5-.73.76-1.19.59-.46-.18-1.03-.03-1.25.34-.28.45-.66.32-1.2-.4-.74-.99-.77-.98-.48.2.33,1.31,2.7,2.37,3.04,1.35.11-.32.41-.44.67-.28.8.49,2.04-1.43,1.36-2.11-.41-.41-.71-.31-.95.31M24.59,201.28c-.01.56.31,1.03.71,1.03.49,0,.44.2-.15.58-.75.48-.73.57.15.58.56,0,1.02.26,1.02.58s-.39.42-.88.23c-.48-.18-.88-.03-.88.35s.24.53.54.35c.29-.18.66,0,.81.41.19.51.47.55.91.14.46-.43.24-1.26-.79-2.93-.89-1.45-1.44-1.94-1.45-1.3M14.55,203.63q-.69,1.31.57.2c1.4-1.24,1.52-1.52.69-1.52-.31,0-.88.59-1.26,1.32M21.64,202.56c0,.14.45.7.99,1.24.93.93.87.97-1.03.64-1.11-.2-1.66-.2-1.22,0,.67.3.67.44,0,.88-.53.35-.14.47,1.17.38,2.26-.15,2.94-1.19,1.64-2.5-.87-.87-1.56-1.15-1.56-.64M27.68,203.54c.82,1.32,1.39,1.43,1.39.27,0-.46-.47-.96-1.04-1.11-.89-.23-.94-.11-.35.84M233.75,203.52c0,.26.53.38,1.17.25,1.05-.2,1.45.31,1.24,1.61-.04.24.2.44.52.44s.58-.26.58-.59.25-.59.55-.59.44.57.31,1.28c-.19,1-.09,1.12.46.57.82-.82-.17-2.83-1.26-2.58-.35.08-.64-.08-.64-.37s-.66-.51-1.47-.51-1.46.21-1.46.48M10.72,205.38c-.57.92.13,1.06,1.23.25.95-.7.96-.78.08-.78-.54,0-1.13.24-1.31.53M17.83,205.82c.48.54.73,1.13.55,1.31-.18.18-.01.53.38.78.46.28.56.2.3-.23-.26-.41,0-.68.64-.7.88-.02.84-.14-.28-.76-.74-.41-1.2-.88-1.02-1.05.17-.17-.09-.31-.57-.31-.78,0-.78.11,0,.98M234.52,205.68c-.2.56-.47,1.23-.6,1.47-.13.24.01.44.31.44s.68-.66.83-1.47c.32-1.69,0-1.95-.54-.44M231.14,205.79c-.18.3-.06.71.27.92.33.21.46.6.29.88-.17.28.02.7.43.93.41.24.54.21.3-.06-.24-.27-.01-1.17.52-2s.61-1.18.18-.78c-.93.88-1.94.98-1.43.15.2-.32.23-.59.07-.59s-.45.25-.63.55M8.75,206.31c0,.4-.59.98-1.32,1.29-1.15.49-1.17.55-.15.44.65-.07,1.48.07,1.86.31,1.13.71,1.58-.79.55-1.82-.64-.64-.95-.71-.95-.22M14.66,206.85c.03.65.16.75.35.27.25-.62.48-.62,1.27,0,.87.68.88.65.17-.27-.44-.56-1.04-1.03-1.32-1.03s-.49.46-.47,1.03M28.7,206.12c.27,1.42-.09,2-1.05,1.69-.86-.28-.88-.23-.15.29,1.27.89,2.93-.75,1.84-1.83-.41-.41-.7-.47-.64-.15M239.04,207.77c-.01.65-.28.9-.69.64-.42-.26-.52-.16-.26.25.45.73,2.4.62,3.12-.18.25-.27.14-.32-.24-.1-.38.22-.97-.07-1.3-.64-.57-.99-.61-.99-.62.02M13.07,209.05c-.18.48-.57.73-.86.55-.9-.56-.57.15.47.99.68.56.85.58.55.07-.27-.44-.08-.88.47-1.09,1.02-.39,1.25-1.4.31-1.4-.33,0-.76.39-.94.88M15.64,208.57c.4.16.73.64.73,1.08s.2.92.44,1.07c.24.15.44-.31.44-1.02,0-.89-.37-1.31-1.17-1.35-.64-.03-.84.07-.44.23M6.41,210.73c0,2.49.53,4,1.24,3.56.29-.18.36-.61.14-.96-.21-.35-.37-1.38-.34-2.3.03-.92-.2-1.82-.5-2-.3-.19-.55.58-.55,1.7M10.15,210.38c-1.02.67-1.61,3.07-.75,3.07.4,0,.55-.18.33-.39-.22-.22.01-1.01.5-1.76.96-1.46.94-1.59-.08-.92M237.85,210.61c0,.23.53.39,1.17.34.64-.05,1.17-.28,1.17-.51s-.53-.39-1.17-.34c-.64.05-1.17.28-1.17.51M241.7,211.04c-.22.36-.12.65.22.65s.62.29.62.65-.39.5-.86.32c-.47-.18-.98-.13-1.13.11-.15.24-1.47.36-2.95.28-1.47-.09-2.68.06-2.68.32,0,.73,7.85.26,8.1-.49.15-.44.65-.37,1.56.23,1.3.85,2.06.71,2.06-.37,0-.29-.26-.36-.57-.17-.62.38-3-.68-3.6-1.61-.22-.34-.52-.31-.77.09M144.58,215.65c7.19.09,18.79.09,25.78,0,6.99-.09,1.1-.17-13.08-.17-14.18,0-19.9.08-12.7.17M229.25,215.65c6.06.09,15.82.09,21.68,0,5.86-.09.9-.17-11.02-.17s-16.72.08-10.65.17M317.75,217.26c-.18.48-.57.73-.86.55-.29-.18-.52-.07-.52.23s.66.52,1.46.47c.97-.06,1.46-.43,1.47-1.11,0-1.25-1.08-1.36-1.54-.15M368.68,231.04c0,1.77.12,2.47.26,1.56.2-1.31.49-1.6,1.38-1.37.62.16.99.08.83-.19-.16-.27.03-.63.44-.8.41-.18.03-.18-.83,0-1.3.27-1.61.09-1.82-1.05-.14-.76-.26.08-.25,1.85M381.33,231.63c-.04.32-.14.85-.22,1.17-.08.32-.18,1.01-.22,1.53-.05.62-.4.82-1.04.57-.81-.31-.85-.23-.2.55.55.66.88.73,1.18.24.31-.5.48-.49.67.06.13.41.26-.49.27-1.99.02-2.42-.25-3.72-.45-2.14M382.93,231.97c-.99,2.59.3,3.92,2.08,2.15.5-.5.35-.58-.59-.34-.92.24-1.26.06-1.26-.65,0-.54.26-.82.58-.62.33.21.43-.03.23-.55-.44-1.14-.6-1.14-1.04.02M375.34,233.53c.18.29.67.39,1.1.23.42-.16.92.08,1.09.55.18.46.02.84-.34.84s-.51.16-.31.35c.19.19.64.18.98-.04.95-.59-.21-2.27-1.63-2.37-.67-.05-1.06.15-.88.44M367.35,236.03c0,1.17.23,1.98.51,1.8.28-.17.51-.99.51-1.8s-.23-1.63-.51-1.8c-.28-.17-.51.64-.51,1.8M387.22,234.12c-.51,1.66-.29,1.96,1.24,1.73,1.12-.17,1.55-.51,1.34-1.06-.36-.94-1.36-1.11-1.36-.23,0,.32-.28.59-.62.59s-.46-.26-.26-.59c.2-.32.21-.59.03-.59s-.35.07-.37.15M387.93,237.93c.07,1.38.12,1.42.33.29.14-.73.47-1.32.73-1.32.76,0,1.06,3.42.36,4.21-.39.44-.24.42.4-.06,1.18-.89,1.35-3.01.32-4.03-1.23-1.23-2.23-.8-2.15.91M385.88,237.37c-.16.26-.09.82.17,1.23.36.59.54.55.81-.16.37-.96-.48-1.89-.99-1.08M122.42,246c3.7,3.71,6.85,6.74,7.01,6.74s-2.73-3.03-6.43-6.74c-3.7-3.71-6.85-6.74-7.01-6.74s2.73,3.03,6.43,6.74M168.7,296.45c-.41.49-.57,1.06-.36,1.26s.38.09.38-.26.46-.73,1.03-.84c.67-.13.79-.35.36-.62-.37-.23-1-.02-1.4.47M167.98,300.34c-1.1,1.15-1.37,1.95-.48,1.39.3-.19.68-.11.85.16.43.69,2.88.45,3.13-.31.11-.34-.22-.78-.73-.97-.51-.2-.79-.13-.62.16.37.59-1.14,1.32-1.66.8-.19-.19-.05-.71.32-1.15,1.02-1.23.34-1.3-.82-.09M168.71,303.76c0,.32.65.52,1.44.46,1.62-.13,1.47-.59-.28-.86-.64-.1-1.16.08-1.16.4M161.83,304.75c.57.64.85,1.33.63,1.55-.21.22.14.39.79.39s1.44.58,1.75,1.28c.39.87.71,1.06,1,.59.24-.38.15-.7-.19-.7s-.62-.29-.62-.65c0-.4.62-.52,1.61-.32.89.18,1.27.19.85,0-.55-.24-.58-.54-.13-1.08.46-.55.39-.84-.24-1.09-.58-.22-.76-.06-.54.52.18.47.03.85-.32.85s-.65-.27-.65-.61c0-.41-.38-.41-1.17.02-.64.35-1.17.42-1.17.16s-.59-.83-1.32-1.28c-1.28-.79-1.29-.78-.29.35M151.26,310.2c.4.64,1.12,1.31,1.6,1.5.48.18.24-.34-.53-1.16-1.69-1.8-2.06-1.91-1.07-.34M161.16,311.02c-.37.44-.5,1.23-.3,1.76.2.53.08.95-.28.95s-.65.3-.65.66c0,.46.22.47.73.06.4-.33,1.37-.69,2.15-.8.78-.11,1.55-.6,1.71-1.08.24-.73.13-.75-.61-.14-1.61,1.33-3.55-.06-2.1-1.51.39-.39.55-.7.36-.7s-.64.36-1.01.81M158.1,311.83c-.04.4-.15,1-.23,1.32-.08.32-.18.87-.22,1.21-.04.34-.34.45-.67.25-.33-.2-.46-.59-.29-.86.17-.27-.29-.33-1.02-.13-.95.26-1.06.42-.38.56.52.11,1.28.82,1.68,1.59.96,1.8,2.94,2.39,2.94.88,0-.6-.3-1.27-.68-1.5-.42-.26-.52-.16-.26.26.25.4.04.68-.5.68-1.13,0-1.16-.57-.08-2.11.54-.78.65-1.49.3-2.04-.38-.61-.56-.64-.62-.11M160.98,315.34c-.35.42-.47.94-.26,1.14s.38.04.38-.38c0-.61.2-.6,1.03.03.56.43.83.56.59.28-.24-.28-.02-.81.48-1.18.78-.57.74-.67-.33-.67-.68,0-1.53.35-1.88.77M225.27,331.56c.99.73,1.02.93.26,1.91-.8,1.02-.79,1.04.32.23.64-.47,1.28-.94,1.42-1.03.34-.23-1.87-1.88-2.56-1.9-.3-.01-.05.35.56.8M122.38,354.44c.34.41.46.9.27,1.09-.19.19.21.2.88.03,1.43-.38,1.18-1.09-.55-1.54-.93-.24-1.07-.14-.6.42M125.51,356.5c.05.62.3,1,.56.84.26-.16.34-.52.17-.79s.03-.63.43-.79c.46-.18.36-.32-.25-.34-.63-.03-.96.37-.9,1.09M126.83,357.68c-.24.74-.76,1.06-1.52.91-.69-.13-1.44.24-1.87.92-.39.63-.93,1.14-1.19,1.14s-.33-.25-.14-.55c.18-.3.12-.68-.14-.84-.26-.16-.51.22-.56.84-.11,1.52,1.95,1.51,2.35,0,.21-.82.64-1.04,1.53-.81,1.42.37,1.67,1.36.34,1.36-.49,0-1.05.41-1.25.91-.19.5-.7.78-1.12.62-.5-.19-.65.01-.44.56.18.47.73.79,1.23.7.49-.09,1.01.17,1.15.58.16.47-.08.61-.67.38-.52-.2-.93-.06-.93.33s.26.52.59.32c.32-.2.59-.02.6.41.01.47.25.37.62-.26.33-.57.4-1.36.15-1.76-.84-1.34-.69-2.19.39-2.19.75,0,.98.32.78,1.09-.17.67.09,1.24.67,1.46.53.2.81.14.64-.15-.17-.28.26-.67.97-.85.71-.18,1.12-.5.92-.7-.2-.2-.91-.07-1.59.29-1.33.71-1.64.1-.52-1.03.55-.55.52-.7-.13-.7-.52,0-.34-.34.47-.91.72-.5,1.57-.75,1.89-.55.32.2.58-.07.58-.59s-.25-.8-.55-.61c-.3.19-.82-.13-1.15-.7-.55-.94-.61-.92-.62.25-.01.71-.32,1.47-.69,1.7-.47.29-.56-.05-.28-1.14.45-1.78.04-2.12-.5-.42M117.15,364.37c.81.42,1.59.67,1.74.55.41-.34-1.32-1.32-2.33-1.32-.48,0-.22.35.58.77M253.97,364.17c-.2.32-.87.59-1.5.59s-1.14.23-1.14.52c0,.78,3.1,1.21,4.1.57.65-.42.54-.47-.44-.2-.77.21-1.32.1-1.32-.27,0-.34.66-.63,1.46-.63s1.47-.26,1.47-.59-.51-.59-1.14-.59-1.3.26-1.5.59M116.2,365.48c.07.4.44,1.31.82,2.01.55,1,.54,1.34-.03,1.57-.4.16.06.29,1.03.29s1.43-.13,1.02-.3c-.41-.16-.56-.58-.35-.92.23-.37.11-.45-.29-.21-.4.25-.68.05-.68-.5,0-.5-.28-.91-.62-.91s-.47-.24-.28-.54c.19-.3.09-.7-.21-.88-.3-.18-.49,0-.42.4M248.63,367.36c-.18.47-.75.7-1.3.53-.81-.26-.83-.21-.13.29.47.33,1.11.44,1.42.25.33-.2.41.06.19.62-.21.54-.12.98.19.98s.57-.33.58-.73c0-.49.2-.44.58.15.4.62.57.65.58.13,0-.41-.4-.91-.9-1.1-.5-.19-.77-.71-.6-1.15.17-.44.18-.8.02-.8s-.44.38-.62.84M119.49,368.23c0,.51,1.6,2.39,2.04,2.39.11,0-.11-.66-.48-1.46-.67-1.45-1.56-1.97-1.56-.93M115.29,369.96c1.01.64-.47,1.29-2.19.96-.84-.16-1.07.02-.83.65.18.48.7.73,1.14.56.44-.17.8-.05.8.26s-.31.57-.68.57-.51.17-.3.39c.21.21.09.74-.27,1.17-.5.6-.43.79.3.79.52,0,.95-.43.95-.95,0-.82.14-.84.97-.15.89.73.9.69.17-.48-.69-1.12-.67-1.43.2-2.39.99-1.09.81-1.9-.42-1.88-.35,0-.28.23.15.51M249.2,372c-1.06,1.06-1.12,1.37-.44,2.01.67.63.81.55.81-.47,0-.68.21-1.1.46-.94.26.16.5-.22.55-.85.05-.62.04-1.1-.02-1.07-.06.03-.67.63-1.36,1.32M254.28,371.18c-.74.47-.72.6.14.93.55.21.86.62.68.91-.5.81.7.62,1.4-.23.4-.48.42-1.07.08-1.61-.37-.58-.55-.62-.55-.13,0,.4-.29.73-.63.73s-.46-.26-.26-.59c.45-.72.25-.73-.86-.02M186.22,375.46c-.25,4.59-.17,12.17.14,13.65.2.96.39-2.02.41-6.61.03-7.06-.31-11.47-.55-7.04M259.68,374.52c-1.02.41-.92,1.18.15,1.18.48,0,.88-.35.88-.78s-.07-.76-.15-.74c-.08.03-.48.18-.88.34M257.77,376.48c0,.36-.26.49-.58.29-.32-.2-.59-.13-.59.16,0,.43,1.27,1.24,3.61,2.31.21.1.23-.41.04-1.13s-.44-1-.57-.62c-.13.38-.63.53-1.12.34-.65-.25-.7-.46-.19-.77.5-.31.51-.54.05-.83-.36-.22-.65-.11-.65.26M262.46,378.89c-.74.53-.72.58.15.3,1.17-.38,1.31.35.39,2.06-.37.69-.99,1.04-1.5.85-.52-.2-.71-.08-.48.29.21.34.73.48,1.16.32.43-.17.92.02,1.1.4.19.43.29.36.26-.18-.11-1.83.11-2.4.76-2,.45.28.52.16.2-.36-.35-.57-.21-.67.54-.38.56.21,1.43.39,1.93.39.78,0,.79.15.1,1.03-.71.91-.7.94.13.3.51-.4,1.12-.54,1.35-.32.23.23.18-.22-.11-1-.29-.78-.86-1.53-1.28-1.67-.45-.15-.59.02-.35.41.61.99-1.19.81-2.21-.22-1.04-1.04-1.01-1.04-2.13-.23M269.5,381.69c.02.72,1.14,2.11,1.15,1.43,0-.38.47-.79,1.04-.91.71-.15.53-.32-.59-.55-.89-.18-1.61-.17-1.6.03M214.55,391.14c0,1.13.12,1.59.27,1.03.15-.56.15-1.49,0-2.05-.15-.56-.27-.1-.27,1.03" fill="#ff9700" fill-rule="evenodd"/>
      <path id="path4" d="M60.58,62.29l-2.32,2.49,2.49-2.32c2.32-2.16,2.76-2.67,2.32-2.67-.1,0-1.22,1.12-2.49,2.49M191.45,132.37c4.93.1,12.84.1,17.58,0,4.73-.1.7-.18-8.97-.18s-13.54.08-8.61.18M95.76,147.91l-8.19,8.36,8.35-8.2c7.76-7.62,8.61-8.51,8.2-8.51-.09,0-3.84,3.76-8.35,8.36M321.31,177.68c0,7.26.08,10.23.19,6.6.1-3.63.1-9.57,0-13.2-.1-3.63-.19-.66-.19,6.6M396.23,200.55c0,1.77.11,2.5.24,1.61.13-.89.13-2.34,0-3.23-.13-.89-.24-.16-.24,1.61M321.31,227.52c0,7.26.08,10.23.19,6.6.1-3.63.1-9.57,0-13.19-.1-3.63-.19-.66-.19,6.6M279.45,244.39l-10.25,10.41,10.4-10.26c5.72-5.64,10.4-10.32,10.4-10.41,0-.42-1.03.59-10.55,10.26M79.65,241.2c0,.1.86.96,1.91,1.91l1.9,1.72-1.72-1.91c-1.6-1.78-2.09-2.18-2.09-1.72M157.29,280.89c6.12,6.13,11.25,11.14,11.42,11.14s-4.71-5.01-10.83-11.14c-6.12-6.13-11.25-11.14-11.41-11.14s4.71,5.01,10.83,11.14M242.82,281.04l-4.09,4.25,4.25-4.09c3.95-3.8,4.51-4.41,4.09-4.41-.09,0-2,1.91-4.25,4.25M224.08,299.8l-10.54,10.7,10.69-10.55c5.88-5.8,10.69-10.62,10.69-10.7,0-.42-1.05.61-10.85,10.55" fill="#ff9700" fill-rule="evenodd"/>
    </g>
  </g>
</svg>