<?xml version="1.0" encoding="UTF-8"?>
<svg xmlns="http://www.w3.org/2000/svg" version="1.1" viewBox="0 0 400 400">
  <!-- Generator: Adobe Illustrator 29.8.2, SVG Export Plug-In . SVG Version: 2.1.1 Build 3)  -->
  <g id="gold">
    <rect width="400" height="400" fill="#ff9700"/>
  </g>
  <g id="svg">
    <g id="svgg">
      <path id="path0" d="M185.16,66.86c-155.13,15.65-149.63,252.18,5.87,260.15-10.28-.91-25.95-3.61-38.29-8.73-6.06-2-24.08-11.91-16.8-8.51.85.85,2.83,1.58,3.28,1.21.28-.23.65-.29.83-.13.18.16.21-.02.07-.39-.33-.94.54-.83.54,0-.02,1.24.45-.85,1.31-.46.77.32,1.98-.98,2.34.02.16.42.07.56-.29.42-.75-.25-.73,1.16.2.47,1.19-.47-.3-1.7.19-2.54.16-.43.11-.58-.15-.42-.58.33-.3-1.7-.32-2.08.34.44,1.02,1.32,1.36,1.76,0,0,0-.89,0-.89.34-.9-1.75-1.46-1.16-1.62,1.38-.48,1.73,2.47,2.32,1.57.23-.37.39-.39.54-.08.13.27.17.25.1-.05-.08-.66-.95-.13-1-.69.26-1.26,1.92.85,1.82-.18,0-.55-.39-.77-1.16-.64-.32-.34.7-1.72.53-2.38.02-.81.07-.83.47-.24.51,1.5,1.54-1.71,1.87-.86.02.38.14.31.34-.2.9-2.18-1.16-1.18-1.71-1.79.16-.57-1.26-1.22.3-1.53.79.1-1.47,1.05.22.56.69-.2.85-.14.62.23-.2.32-.15.4.15.21.25-.15.45-.08.45.16.44.52,2.02.4,4.57,1.75,11.28,5.23,28.31,8.49,36.2,9.27-134.5-13.62-137.62-213.22.24-225.62v-18.2c-1.7.07-2.96.19-5.86.45M208.98,75.5v9.1c136.39,11.17,136.25,213.6,0,224.78v18.04c68.77-2.24,128.3-70.53,121.14-139.33-.77,6.17.4,28.88-3.4,35.04-2.03-3.11,1.23-1.47.34-2.45-.59-.61-1.82.26-1.51,1.06.23.6-1.27.56-1.98-.06-.93-.6.56-1.48.49-.65-.11.18.05.33.37.33,1.92-.31-1.38-.99-1.38-1.47,0-.46.27-.44,1.3.11,1.92,1.01-1.57-2.31-1.69-.06,0,.75-.03.75-.72.1-.4-.38-.63-.86-.53-1.07.11-.22-.03-.19-.3.06-.59.54-2.08-.53-1.68-1.2.15-.43-1.05.78-1.35.12-.29-.29-.5-.27-.72.07-.4.72.61-.29.96.65.76,1.23-.05-1.07,1.34.43.5.47,1.03.73,1.17.59.15-.14.26-.06.26.19,0,.65-.99.56-1.57-.13-.54-.99-1.27.4-1.83.06-.14-.14-.04-.25.23-.25.73-.12-.1-.92-.56-.63-.82.26-.58-.9-1.57-.35-.61.44-1.57-.07-1.73.6-.2.93-1.4-.97-.39-.59.65.26.35-1.05,0-1.17-.64-.35-.17,1.18-.82.19-.75-1.1.26,1.39-.53,1.17-.73-.08-.08,2.36-.57,2.52-.68.42-.8-1.74-.25-4.73,2.8-15.35,2.09-33.41-1.97-49.57-.49-1.14.82-1.21,1.02-.54,0,.23-.17.31-.39.18-.69-.12.24.98.76.81.94.09.22-.54.74-.61.57,0,.86,1.1.34,1.29-.26.09-.03.09.51,0,.55-.02,2.26-.98,1.11-.69-.35.14-.74.09-.85-.09-.23-.48,3.4-.34,2.95.25-.06.26.07.38.28.25.53-.3-.18-1.25.37-1.55.68-.24-.6-2.11.56-1.05.43.35.66.38.66.1.15-.79-1.63-.19-2.1-.75-.1-.65,1.07-.26,1.71-.63.74-.21.84-.18.39.13-.91.77.62.33.79-.38.33-.62.55-.71.96-.37,1.11,1.02-.53-2.34.7-.68.77.94.99.86.77-.29-.1-.54-.37-.98-.6-.98s-.29-.12-.13-.28c.29-.57,2.66,2.98,2.42,1.48.04-.98-.62-.42-.89-1.1-.25-.69.86-.61,1.45.1.22.42,1.55.91.97.29-.5-.36-.63-2.51-.13-2.2.22.13.26-.23.1-.88-.38-1.57-.6-1.85-.98-1.25-.52.96-.41-.95,0-.84.19,0,.28-.4.2-.88-.3-1.71,1.45,3.87,2.6,8.3,1.59,4.67,2.73,15.7,3.83,19.76-3.7-60.68-57.9-114.44-120.17-117.4-.38,0-.49,2.07-.49,9.09M238.09,72.29c1.48.67-2.31-.43-1.59.32.17.27.03.34-.38.18-1.16-.64,1.11-1.22,1.97-.5M246.29,75c1.65.56-1.08.44-1.17,0-.29-.46.1-.46,1.17,0M155.27,136.55l-35.55,35.83c-.05,4.35-.16,13.11-.21,17.46h7.63c15.92-15.92,47.96-47.96,63.88-63.88-.05-6.29-.15-18.95-.21-25.24l-35.55,35.83M208.98,113.48v12.5c15.92,15.92,47.95,47.95,63.87,63.87h7.62v-17.38c-17.82-17.82-53.67-53.67-71.49-71.48v12.5M91.33,125.59c-.47.54-.91.98-.98.98-.18-.57,2.74-3.44.98-.98M89.95,128.81c-.15.4-.29.43-.49.1-.43-.76-.83.83-.27.92.26.1.13.2-.28.22-.41.02-.63.15-.49.29.33.61-1.45,1.62-.54,2.25.4.48.34.55-.35.42-1.16-.19-.42.62.19.58.31,0,.56.19.56.41s-.22.28-.49.12c-.82-.42.76,1.22,1.1.77.31-.12.56-.02.56.22.11.68-2.97-.18-2.73.61,0,.65,2.13.58,2.8-.09.32-.42,1.48-.81.8-.01-.98.55,1.69,1.33,1,1.31-.43-.12-.68.03-.68.38,0,.32.13.55.29.53,1.16-.34,1.72.85.88,1.22-.22,0-.39-.18-.39-.39-.14-.9-2.5.04-1.21.22.32-.34,1,.99.43.76-.22-.13-.28.03-.15.37.24.62.64.52,1.81-.49.83-.79.95.09,1.73-.52.44-.37.47-.28.16.55-.47.69.23,1.72-.33,1.31-.58-.12-.29-1.44-.86-1.22-.53.21.25,1.33-.39,1.38-.25,0-.36-.15-.25-.34.12-.19-.39-.07-1.13.27-1.07.31-1.51,1.48-.65.95.31-.48,2.78-.85,2.78-.42,0,.18.2.28.44.23.96-.21.7.8-.27,1.05-.57.14-.96.35-.85.45.51.43,2.9-1.49,2.09.45q-.24,1.08.45.27c.58-.98,1.51-.22,1.66-1.11,0-.34.19-.62.41-.62s.32-.16.2-.35c-.06-.74,1.32-1.15.34.56-1.1,2.75-.32.91.83,1.76,1.05,1.18.39-1.24-.25-.97-.53.14.22-1.14.49-1,.53.05-.33.84.5.78.94-.12.47-1.72,1-2.34.78-1.09-1.25-.89-1.17-1.86-.07-1.22.99,1.2,1.56.49.33-.2.42-.16.25.11-.36.62.59,1.12.53.09,0-.45.17-.72.37-.6.37.23-2.58,6.14-3.18,6.39-7.59,14.08-12.06,38.06-12.43,56.3-.2-.31-.36-.33-.54-.04-.28.46-1.4.17-1.4-.36.2-.41,1.16.17,1.53-.51.41-.49.28-.55-.91-.4-1.78.45-1.21-1.09-1.78-.23-.21.32-.38.4-.39.16-.7-1.3-2.65.85-.88,1,.58,0,.6-.06.1-.39-.94-.62.59-.41.64.19.29.81.78-.02,1.07.79.19.49.09.52-.58.16-.74-.57-1.97.1-2.52-.41-.14-.56-1.18.38-.79-.29.18-.65,1.16.23.88-.35-.46-.74-1.85-.11-1.45.65.62,1.03-.8,2.57-.4.13.03-.27-.34-.49-.83-.5-2,.09,1.47-1.02-.19-1.33-.95-.33.06.29-.55.8-.43.51-.13,1.47.36,1.17.37-.14.25,1.46.27,1.77-.68-1.01-2.59-3.99-2.41-2.65,0,.88.53.45.78,1.21.43.96-1.21-.29-.82.64.21.75,1.08.12,1.08.97.18,1.07-2.01-.91-2.46-1.14-.36.43-1.48,1.71-1.22,2.13.09.9-.6-.06-.44-.98.02-.96.15-1.23.48-.96.5.55,1.2-.42.35-.44-.94-.08-.39-1.29-1.34.2-1.03,1.13.05,2.3-.46,3.13-.68.24-.32-1.2-.74.58-3.3-19.48,4.51-56.16,15.45-72.2-.41-.48,3.42-7.57,3.77-5.24M89.97,134.08c-.28.39.83.2.58.5-.33.33-1.5-.25-1.27-.64.12-.19.02-.35-.22-.35s-.33-.17-.2-.39c.29-.58,1.35.55,1.11.88M88.84,136.76c-.53.86,1.41-.5.86.54-.12.32-.04.59.18.59.88-.2-.32-2.32-1.05-1.13M89.03,139.16c-.45.68.26,2.92.29,1.95-.14-.23-.04-.52.23-.65.39-.18.39-.27,0-.46-.69-.14.22-1.28-.52-.85M96.51,144.61c.82,2.14,1.3.11.3-.42-.71-.44-.73-.41-.3.42M188.28,167.58v16.41h-33.98v22.27h33.98v33.59h23.05v-33.59h33.99v-22.27h-33.99v-32.81h-23.05v16.41M323.44,159.01c-.18.74-1.81.25-.92-.53.31-.31.92.04.92.53M323.25,160.54c-.11.18-.59.23-1.06.1-2.01-.3,1.9-1.16,1.06-.1M129.33,163.96c-1.67,1.6-3.3,4.62-2.09,3.87.22-.14.5-.01.61.28.31,1.07-2.91.15-2.23,1.09.42.68-1.11-.2-1.22.34-.32.51,1.24.47,2.23-.06.58-.31.73-.31.54,0-.38.6.72.26.34.86-.71.81-.97-1.86-1.1.84-.06,1.03.89,2.31,1.46,1.97.56-.32-.27,1.15.27,1.06.42.09.67-2.55-.16-1.6-.69.58-1.14-.36-.56-1.17.31-.44.35-.41.17.13-.28.86.1.87,1.33.02.69-.47.84-.5.55-.1-1.09,1.48-.65,2.76.91,2.61,1.38-.14,1.46-.08,1.46.96,0,.76-.16,1.04-.52.91-.4-.28-1.38.04-1.01-.65.41-.67-.67.3-.62-.31,0-.23-.18-.41-.41-.41-.55.08,1.07,2.01,1.25,1.72.47-.29,1.5.31,1.24.73-.15.25-.06.29.24.11.78-.41-.29,1.46.69,1.79,1.3,1.06-.48-.65-.04-.94.34-.42-.82-2.63-.13-2.97.55-.55,1.06-.56,1.06-.02-.11.63-1.45-.64-.39,1.54.37.57.43.51.54-.46.03-.53,1.31-1.17.86-.03-.26.82.66,1.49,1.4,1.03.21-.13.16.12-.11.56-.54,1.71-1.86-1.41-1.13.37.24.49.33,1.06.2,1.27-.19.59,1.1-.17.87-.51-.51-.85,2.34-.09,1.23-1.32-.37-.46-.39-.57-.05-.37.51.31,1.07-.12,2.12-1.64.47-1.02,1.39-.4.73-.07-.53-.02-.58.93.07.54.27-.16.15.1-.26.56-.4.79-1.79.71-1.65,1.12-.08.82-8.88,9.41-10.88,11.45h-7.24c.35-4.46-1.27-18.42,2.08-17.78-.92.24,13.33-13.88,7.33-7.32M315.89,165.82c0,.62-.92,1.1-1.47.76-1.37-1.16,1.41-2.36,1.47-.76M317.36,166.18c-1.06.79-.4,1.19.41.23.83-.92.66-1.01-.41-.23M280.08,180.94v8.12h-7.24c-2.12-2.22-13.93-13.56-13.06-13.88.31-.19.4-.15.23.12-.51,1.47,2.37.59,1.93,1.9-.49,1.25,1.47-1.34,1.14.92-.29.23,1.25,2.22,1.2,1.65-.51-.89-.63-2.38-.22-2.64.79-.57.16,3.42,1.35,1.54.35-.47.58-.56.59-.25.02.82.79.11.79-.73,0-.42.19-.76.43-.76.71.08-.47-1.8.4-.88,1.63,1.19.49-.03,1.17-.52.68-.41-.29.67.31.67.5.25,2.81-.12,2.56.73-.13.22-.06.39.17.39,1.62-.32-2.99-2.27-.61-4.53.35-.3.46-.34.24-.08-.29.02-.69,3.15-.03,2.3.19-.3.26-.77.16-1.03-.44-1.71,2.94-.18,1.3.93-.63.7-.63.77.03,1.27.38.29.58.39.43.22-.15-2.56,1.24-1.78-.85-3.98.51.37,1.44-1,1.89-.64.16.15.17-.12.02-.6-.43-2.1,1.63.23.41.9-.7.51-.58,1.84.18,2.04.34.09.4.03.15-.17-.87-.7-.39-1.5.87-1.44,1.13.22,2.33-1.04.68-.8-1.09.25-1.29-.56-.27-.65.41-.02.49-.11.19-.23-.69-.34.08-.8-.69-1.31-2.22-2.81,3.5,2.65,4.11,3.29v8.12M122.82,170.97c0,.28.32.83.33.55-.16-.33,1.76-1.17.36-1.04-.42,0-.73.22-.69.49M130.44,171.93c-1.17,1.24,2.26.95.59,1.55-1.64.64-2.26-.26-1.05-1.54.27-.29.38-.71.23-.94-.2-.64.89.25.22.93M136.38,174.97c-.68.41-.3.69-.58,1.31-.52.27.47-2.56.85-1.87.13.13.01.38-.27.56M270.06,175.48c-.15.24-.37.18-.58-.14-1.13-1.75.93-.65.58.14M267.05,178.22c-.39.59.66,2.19.3.94-.24-.64-.18-.67.52-.3,1.53,1.19-.54-3.13-.82-.64M244.92,195.32v10.54c-3.77-.05-27.02.02-26.25-.36,1.16-.14,2.23-.5,2.44-.82.3-.48.36-.46.37.11,0,.43.31.68.81.68.99.05.51-.85-.05-.57-.2.12-.36.06-.36-.13s.92-.3,2.05-.22c2.75.12.87,0,1.18-1.38.43-2.56-.8,1.86-1.25.78-.32-.78-1.32.36-.92-.7.23-.6.18-.63-.36-.2-.62.5-1.48-.05-.93-.6.46-.19-.02,1.13.78.31.38-.31.63-.33.8-.05.3.52,1.25.61.43-.2-.95-.95-.73-1.56.26-.72,1.27,1.07-.24-.49.14-.73.29-.71-1.77.86-1.94-.09-.19-.91.53-.51.37-1.95.19-1.87-1.5-1.48-1.77-3.06.01-.65,1.16,1.21,1.17.69.02-.52.76.97.77.4.01-.84-1.58-1.82-2.17-1.33-.37.3-.56.32-.56.04,0-.23.39-.69.87-1.02,2.07-1.61-1.74.49-2.34.96-.34-2.5-1.4-.69-1.12-1.49.32-.52,1.42-.18,1.42.43,0,.3.12.3.43,0,.54-.54.07-1.4-.56-1.02-.65.46.62-1.08.14-1.62-.9-.62,1.87-2.87,2.2-3.99-.28-.19-1.44,1.19-1.76,1.52.01-.4.3-2.73.02-2.64-.11.12-.56-.1-.99-.48-1.51-1.34,2.42,2.89-.3,3.42-.22,0-.3-.16-.18-.35.06-.9-1.45-.88-.97.55-.91.4-.85-1.86.72-1.58.88.13-.5-.21-.06-.66.15-.25.08-.31-.19-.14-1.04.27-.84-2.55-2.17-1.48-.34.13-.5.44-.35.68.18.45-1.29-.81-1.65-.38-.35.13-.51.07-.37-.15.27-.52,2.46-.25,2.73-.78.4-.65-2.54-.45-3.2.21-.33.33-.71.5-.84.37-.4-.4,1.49-1.03.23-.97-2.2-1.15,27.96-.18,33.3-.38v10.54M216.13,187.4c.55,1.98-.95-.39-.66-.73.33-.53.45-.4.66.73M217.89,191.62c.1,1.68-.6,1.38-.48.1.09-1.32.32-2.49.48-.1M219.14,193.12c.02.13,1.33,1.58,1.17.49.09-.65-.96-.78-1.17-.49M218.64,196.69c.96.44-.84,1.49-1.26,1.94.3-.48,1.85-1.73.8-1.89-.61.03-.74-2.05-.31-1.04.12.32.47.77.78.99M221.62,200.62c-.29.45-.44.9-.33,1.01.13.36-1.03.21-.7-.33.26-.67-.63-1.76-1.16-1.43-.24.15-.29.06-.12-.22.22-.36.43-.35.92.04,1.29,1.24-.58-1.97.62-.37.72.93.99.86.79-.19-.15-.81-.14-.81.18-.1.23.52.16,1.06-.19,1.59M218.89,200.88c-.47.7,1.24-.34.82.32-.36.57-1.07.25-1.19-.54-.12-.92.73-.28.36.21M226.71,202.93c-.26.79-.76.02-1.12.58-.27.59.66.3.7,1.08.27,1.19.17-1.28.6-1.07.6-.11.3-2.08-.18-.59M87.11,205.47c0,2.03-.26,2-.46,0-.21-2.04.48-2,.46,0M215.72,205.74c-.48.09-1.28.09-1.76,0-1.16-.22,2.91-.22,1.76,0M119.53,214.55v8.69c17.78,17.78,53.55,53.55,71.32,71.32,0-6.21-.02-18.71-.03-24.92-15.8-15.9-47.6-47.89-63.4-63.78h-7.89v8.69M240.92,237.79l-31.93,31.93v25c17.82-17.82,53.67-53.67,71.49-71.48v-17.39h-7.62l-31.93,31.94M280.08,211.13c0,2.47-.13,4.49-.29,4.49-.39.11-.13-5.2-.56-5.08-.39.05-.5-1.91.07-.78.34.52.38.52.39-.01,0-.73-2.37-2.89-2.69-2.45-1.02,1.06-3.56-1.12-4.33.12-.02.55-1.14.56-.39-.19.2-.81,6.2-.55,7.81-.59v4.49M314.31,216.72c-.4.67.63.28.3,1.02-.36.46.85,1.51.53.55-.64-1.01,1.99.15,1.5-.65-.29-.59-1.67-.27-1.88-.92-.12-.37-.22-.37-.45,0M190.22,281.64v11.92c-3.12-3.23-16.51-16.77-16.88-17.93.12-.19.04-.25-.17-.12-.21.13-1.22-.61-2.24-1.65-1.84-1.87-1.85-1.89-.86-2.07.55-.1.93-.08.85.05-.12.35,1.1,2.49.86.55-.04-2.26.11-2.77.88-2.97.43-.11.7-.07.6.1-.39.07,1.42,1.94,1.17,1.22-.59-1.05,1.69.47,1.05-.93-.16-.59-.06-.74.38-.57.35.38,2.22-.7,1-.34-.47.15-.68.01-.68-.44.09-1.2-1.42,1.57-1.44,1.44-.23.16-1.41-1.23-1.72-1.53.34.02,1.75-.15,1.36.45-.37.69.78-.18.41-.48-.23-.58.71-.36,1.21-.97,1.48-1.14-2.36,1.18-2.31.19-.34-.37-.32-.41.09-.18.88.5,1.27-.65.52-1.54-1.43-1.56,1.02.49,1.13.69.43.33,1.65-1.06.72-1.35-.44-.32-.41-.35.15-.17.47.32,1.91-.06,1.59.68-.33.66.99-.15.18-.7-.41-.49-.33-.54.52-.32.55.14,1.1.1,1.22-.09.23-.51-2.62-.48-2.47,0,0,.23-.11.3-.25.17-.53-.53.73-1.43,1.66-1.2.58.15.93.06.93-.22,0-.25.15-.36.35-.24.16.38,1.56-1.02.96-.83-.25.15-.55.01-.67-.3-.35-.67.59-.85.33-1.39-.27-.44-1.4-.02-2.07.77-.42.5-.46.5-.23.02.03-.56,2.22-2.15.58-1.95-6.25-7.56,9.39,8.65,11.3,10.34v11.92M177.63,262.96c-1.14,1.02-.34-1.81.14-.79.18.3.12.63-.14.79M181.84,262.89c-.13.21-.11.6.04.85.46.78-1.24-.41-.76.55,1,1.63,1.71-2.84.72-1.4M168.52,270.76c-.11.18,0,.33.27.33s.36.12.21.26c-.36.36-2.63-1.86-2.35-2.31.33-.48,2.18,1.39,1.86,1.71M172.27,270.51c-.1.7,1.69.89.78,0-.52-.58-.77-.92-.78,0M172.27,272.05c-.17.4,1,1.45.6.63-.18-.29-.08-.64.23-.84.96-.56-1.02-.42-.83.21M210.99,275.22c.35-.18.33-.1-.05.24-.41.07-1.16,2.7-.46,1.94.25-.37.44-.4.63-.1.31.66-1.09.79-.95,1.55,0,.55.06.56.37.07.63-.85.98-.02.38.66-.29.38-.38.57-.19.41.2-.54,1.85,1.55,1.7.87-.31-.88,1.89-.96,2.22-.08.2.53.16.57-.24.18-1.96-1.63-2.34,3.02.26,2.86,1.41.09,1.04.88,1.95.7.71-.23.33-1-.22-.71-.2.12-.36.04-.36-.19-.1-1.25,1.94,1.15,2.43,0,.32-.34.33-.44.04-.28-.33.4-1.17-.66-.71-.43.18.16.74-.09,1.24-.56,1.17-1.16.6.14,1.4-.16.56-.11-2.91,3.25-2.96,2.69-.15.47-5.89,6.75-7.71,8.28.04-3.02-.06-17.89.39-18.19.18.29.56.4.85.25M215.33,283.19c-.82.99-1.18-1.11-1.5-1.49-.16-.14-.18.05-.05.41.29.8-.33,1.33-.63.55-.62-2.2,2.22-.35,2.18.53M148.24,301.17c1.59.56-1.54.25-1.37-.09,0-.38.35-.35,1.37.09M149.04,302.76c.27.44,1.35.49,1.35.06.1-.32-1.61-.6-1.35-.06M147.45,303.93c-.39,1.59.81.1,1.38-.13.88-.43-1.43-.25-1.38.13M237.68,305.51c.52.54-1.14.15-.73.88.23.6-2.97.71-3.4.11-.13-.18-.36-.15-.49.07.02,1,3.15.83,2.1,2.44-.25.87-.2,1.15.2,1.15.35-.17,1.99.85,1.68-.03-.17-.75-1.46-.08-1.48-.9-.14-.63,1.4-.64,1.38-.25-.35.57.96,1.63,1.72,1.39.46-.15.81-.08.81.14s.48.85,1.07,1.39c1.21.94.4,1.43.07.5-.19-.87-.89,2.01-.73,2.64.2-.67,2-2.61,1.68-1.17-.12.32-.39.58-.6.58s-.26.18-.13.39c.27.58-.71.27-.59,1.06,0,.55.11.52.61-.2.58-.83,2.13-1.22,2.13-.54,0,.18.26.33.59.33.7,0,.8-.64.1-.68-.39-.02-.39-.07,0-.23.61-.25,1.66.78,1.66,1.62,0,.37.18.52.43.37.24-.15.55-.1.68.11.47.72,2.4.97,2.4.31,0-.33.34-.59.78-.59.87-.07,1.11.83.13.51-.4-.16-.55-.09-.4.16-.11,2.31-33.45,10.52-39.75,9.52-.15-.87.03-13.54.07-16.63,7.08-.34,22.79-3.41,25.46-4.89.64-.37,1.91-.15,2.54.44M142.38,307.44c-.11.38,1.66,1.34,1.26,1.78-.67.54-2.41-3.21-1.52-2.39.14.15.26.42.26.61M231.65,306.92c-.14.18,1.79,1.8,1.93,1.4.14-.18-1.79-1.8-1.93-1.4M234.07,308.76c.32,2.13,1.18-.86.31-.95-.21,0-.35.43-.31.95M141.54,311.12c-.68.67-1.52-.03-1.15.5.47,1.26,3.71-2.21,1.15-.5M238.93,311.33c.22.96.21.96-.41.2-.44-.54-.61-.6-.54-.2.07.39-.16.54-.68.46-1.66-.39,1.12.87.39,1.5-.21.34-.16.42.14.23.53-.12.28-1.39.76-1.26.75.46,1.25-.38.68-1.15-.54-.72-.56-.71-.34.22M190.27,312.52l.04,1.74.33-1.37c.47-1.53-.44-2.89-.37-.37M190.31,316.82c-.19,2.77.8-.37.34-.99-.14-.09-.3.36-.34.99M243.17,316.79c-.36.61,1.31-.39.84.3-.15.24-.04.56.23.71.63.38-.22-.49.35-.88.83-.85-1.32-.51-1.42-.14M245.18,317.45c-.82.65.49,2.04.3.87-.46-.4.87-1.02.38-1.12-.23,0-.54.11-.68.26M190.29,323.19c.01,1.21.17,2.2.35,2.2.58-.42-.37-7.55-.35-2.2" fill="#d4af37" fill-rule="evenodd"/>
      <path id="path1" d="M0,200v200h400V0H0v200M191.02,75.56v9.15l-2.25.24c-94.65,10.12-135.32,124.38-68.27,191.79,18.31,18.41,48.92,32.64,70.21,32.64.17,0,.31,4.04.31,8.98v8.98h-1.69c-15.06,0-41.42-8.63-57.89-18.95-91.58-57.4-79.35-194.49,20.86-233.84,11.46-4.5,26.31-7.78,36.66-8.09l2.05-.06v9.15M216.66,66.99c77.86,9.64,128.94,84.7,110.08,161.76-13.15,53.72-60.2,94.23-114.34,98.43l-3.42.26v-9.04c0-7.08.11-9.04.5-9.04,22.74,0,55.27-15.92,73.02-35.74,48.82-54.52,36.73-136.6-25.62-173.88-13.5-8.07-35.34-14.99-47.33-14.99-.48,0-.57-1.42-.57-9.18v-9.18h1.48c.81,0,3.6.26,6.2.58M159.09,157.9l-31.94,31.94h-7.9v-8.69s-.02-8.69-.02-8.69l35.8-35.85,35.8-35.85.1,12.61.1,12.61-31.94,31.94M280.86,181.35v8.49h-8.14l-31.86-31.93-31.86-31.93v-12.5s-.01-12.5-.01-12.5l35.94,35.94,35.94,35.94v8.49M211.33,167.38v16.6h34.38v22.66h-34.38v33.2h-23.24l.11-16.6.11-16.6h-34v-22.66h33.98v-33.2h23.05v16.6M159.31,237.67l31.71,31.81v25.58l-35.92-35.91-35.92-35.91.16-8.59c.08-4.73.17-8.64.18-8.69s1.84-.1,4.06-.1h4.03l31.71,31.81M280.86,214.36v8.5l-35.94,35.94-35.94,35.94v-25.5l31.87-31.68,31.87-31.68h8.13v8.5" fill="#0b0b0b" fill-rule="evenodd"/>
      <path id="path2" d="M236.91,72.27c.43.18,1.04.33,1.37.33.37,0,.3-.12-.2-.33-.43-.18-1.04-.34-1.37-.34-.37,0-.3.12.2.34M87.45,130.94c-11.94,20.44-18.88,49.29-17.24,71.6.32,4.4.38,4.69.44,2.15.06-2.67.12-2.86.64-2.17.48.63.57.65.57.13,0-1.66,1.93-2.22,1.98-.57.03.82.04.83.36.07.49-1.15.46-1.37-.22-1.37-.9,0-.52-1.27.42-1.4.77-.11.77-.1.02.45-.66.49-.67.56-.1.56.42,0,.66.31.66.88,0,.82.06.79.77-.29.47-.71.63-1.3.41-1.52-.22-.22-.21-.64.03-1.08.52-.97.96-.91,1.04.15.05.61-.03.72-.26.35-.21-.34-.41-.38-.57-.12-.14.22-.07.52.15.65.22.14.33.63.26,1.1-.08.47-.06.64.03.37.21-.62.78-.63.98-.03.09.28.36.33.69.13.41-.25.32-.4-.36-.66-.65-.24-.79-.46-.49-.81.22-.27.41-.62.42-.79.06-1.05.75-1.55,1-.74.15.46.44.85.65.85.23,0,.22-.3-.04-.77-.33-.62-.3-.73.17-.55.32.12.69.56.82.97.13.41.52.74.87.74.53,0,.51-.09-.12-.55-.42-.3-.63-.68-.48-.83.15-.15.56.01.91.36.8.8,1.23.83.57.04-.41-.49-.39-.56.12-.36.48.18.57.04.4-.67l-.21-.91.68.92c.57.77.59.99.14,1.31-.42.3-.38.33.16.16.76-.25.82.85.08,1.44-.22.17.25.2,1.04.06,1.36-.23,1.44-.19,1.57.86.07.61.25-2.23.4-6.31.61-16.87,4.65-34.44,10.64-46.27.62-1.22.97-2.46.88-3.08l-.16-1.04-.06,1.08c-.07,1.21-1.61.74-1.63-.49,0-.52-.05-.52-.38,0-.21.32-.38.85-.38,1.17,0,.42.09.45.3.12.67-1.06,1.41.13.94,1.51-.35,1.02-.42,1.09-.33.29.08-.67-.07-1.01-.43-1.01s-.49.3-.38.9c.1.49.02.81-.16.69-.18-.11-.36-.86-.39-1.65-.03-.91-.12-1.12-.22-.56-.1.53-.45.88-.88.88-.84,0-1.22-.78-.93-1.89.17-.66.06-.76-.65-.57-.72.19-.82.42-.62,1.44.17.87.12,1.05-.15.63-.92-1.41.14-3.21,1.65-2.81.16.04.29-.09.29-.3s.26-.28.59-.15c.7.27.82-.84.14-1.26-.25-.15-.36-.12-.24.07.11.19-.39.64-1.11.99-1.14.55-1.32.55-1.32.05,0-.37-.23-.49-.62-.34-.4.15-.55.06-.44-.25.1-.27.42-.42.72-.34s.83.23,1.19.33c.39.11.82-.14,1.08-.62.36-.68.33-.77-.18-.57-.38.14-.57.05-.5-.25.06-.27-.15-.57-.47-.66-.35-.11-.43-.04-.19.15.72.59.72,1.82,0,1.55-.36-.14-.73-.25-.83-.25s-.08-.18.06-.39c.13-.21.07-.39-.15-.39s-.5.18-.64.41c-.17.28-.43.26-.82-.06-.31-.26-1.13-.47-1.82-.47-.69,0-.95-.07-.57-.17.38-.09.57-.36.43-.59-.15-.25-.08-.31.19-.14.26.16.47.03.5-.33.03-.33.09-.79.15-1,.05-.21.12-.58.15-.81.03-.23.25-.29.5-.13.3.18.35.11.14-.23-.25-.4-.41-.38-.78.13-.26.35-.59.51-.74.36-.15-.15-.15.06,0,.46.2.51.14.65-.18.45-.25-.16-.46-.09-.46.15,0,.28-.19.25-.55-.07-.47-.43-.47-.55,0-.82.3-.17.55-.74.55-1.27s.17-.96.37-.96.3.36.22.79c-.08.43.01.69.22.56.51-.32.46-1.25-.07-1.58-.25-.15-.76.14-1.16.66-.61.8-.72.83-.73.23-.01-.91.72-2.3,1.1-2.06.16.1.29-.16.29-.58s-.16-.75-.36-.75-.11-.3.18-.66c.36-.45.38-.57.05-.37-.9.54.28-1.87,1.26-2.58.22-.16.26-.29.09-.29-.17,0-.12-.36.11-.79,1.08-2.02-.15-.46-1.61,2.03M87,133.59c.03.43-.12.78-.33.78s-.3.15-.18.33c.11.18-.05.67-.35,1.07-.74.98-.75.13-.02-1.61.65-1.56.81-1.66.89-.57M100.79,141.11c-.65,1.13-1.18,2.19-1.18,2.37,0,.17-.14.24-.3.14-.16-.1-.32.25-.35.78-.03.53-.02.91.03.84.43-.59,3.27-6.18,3.14-6.18-.09,0-.7.92-1.35,2.05M148.62,143.07l-3.9,4,4-3.9c2.2-2.14,4-3.95,4-4,0-.28-.49.18-4.11,3.9M86.68,139.99c.35.42.25.66-.44,1.12-.83.54-.89.53-.89-.32,0-.57.14-.76.37-.53.61.61,1.13.42.61-.21-.27-.32-.4-.59-.29-.59s.4.24.64.54M89.74,140.39c-.87.66.43,1.18,1.33.54.4-.28.35-.32-.2-.14-.54.18-.67.08-.5-.35.27-.71.25-.71-.64-.04M89.15,142.76c.34-.13.7-.09.81.09.11.18-.38.34-1.09.35-.96.02-1.24-.12-1.08-.53.14-.38.29-.41.48-.11.15.24.55.33.88.2M95.31,143.95c-.29.54-.42,1.08-.3,1.2.12.12.35-.15.49-.61.18-.55.47-.76.87-.61.5.19.52.13.11-.36-.62-.75-.56-.77-1.18.38M91.4,144.04c-.01.69-.68,1.35-.94.92-.15-.24-.07-.43.17-.43s.33-.18.19-.39c-.13-.22-.06-.39.17-.39s.41.13.41.29M93.92,145.15c.16.65.11.92-.15.76-.61-.38-.49.02.17.57.49.41.57.27.52-.93-.03-.77-.22-1.41-.42-1.41s-.26.45-.12,1.01M323.18,155.86c.05.54.18,1.15.31,1.37.91,1.55.73,2.52-.54,2.88-.7.2-1.02.38-.71.4.43.03.41.15-.12.54-.64.47-.64.5.09.5.43,0,.7-.12.62-.26-.25-.4.98-1.29,1.3-.94.15.17.06.38-.21.48-.27.1-.49.35-.49.57s.23.31.5.21c.3-.12.5.1.5.54,0,.48-.13.6-.38.35-.54-.54-1.12-.48-.77.07.18.29.08.38-.29.24-.31-.12-.9.03-1.31.32-.41.3-.61.54-.44.54s.02.28-.32.62c-.34.34-.54.74-.45.89.09.15-.17.71-.57,1.24-.41.53-.75.74-.75.45,0-.29-.21-.39-.46-.23-.3.18-.35.11-.14-.22.21-.34.13-.44-.23-.31-.3.11-.51.37-.47.57.04.21-.18.37-.51.37s-.49-.23-.37-.54c.13-.34.04-.44-.24-.27-.24.15-.66-.02-.92-.38-.44-.6-.49-.59-.68.11-.14.53-.04.7.34.55.71-.27,1.2,1.03.54,1.44-.59.37-1.64.06-1.36-.39.1-.17-.05-.4-.35-.52-.39-.15-.48.02-.33.61.13.48.06.72-.17.57-.21-.13-.39.01-.39.32,0,.43.12.46.54.12.37-.31.66-.32.95-.04.28.28.26.5-.08.71-.31.19-.39.14-.21-.15.15-.25.09-.45-.13-.45s-.41.18-.41.39-.37.39-.82.39c-.58,0-.76.18-.59.61.13.35.07.51-.15.37-.21-.13-.39-.05-.39.17s-.21.41-.46.41-.35-.11-.21-.24c.13-.13-.02-.5-.33-.81s-.77-1.35-1.01-2.31c-.95-3.78-.65-1.17.43,3.78,3.18,14.49,3.52,30.94.93,45.22-.32,1.79-.49,3.36-.36,3.48.12.12.23-.15.23-.62s.15-.85.34-.85.34-.4.34-.88c.02-3,.44-3.97,1.03-2.42.13.35.07.5-.15.37-.21-.13-.39-.04-.39.2,0,.27.32.34.8.19.44-.14,1.04-.06,1.32.18.39.32.57.29.74-.13.26-.67,1.37-.59,1.82.13.17.28.5.4.72.26.22-.14.52-.07.65.15.14.22-.11.4-.54.4s-.94-.28-1.13-.61c-.31-.54-.4-.54-.9.07-.31.38-.35.56-.1.41.28-.17.56.05.72.55.19.59.38.71.68.4.3-.3.57-.3.94,0,.38.31.52.31.52,0,0-.24.31-.44.68-.43.58,0,.6.06.1.38-.39.25-.42.38-.1.38.81.01,1.07-.17.96-.65-.06-.25.07-.57.29-.7.24-.15.34.21.26.96-.08.66.06,1.31.3,1.45.24.14.32.12.18-.04-.14-.16-.08-.82.15-1.47.38-1.1,1.08-.93,1.08.27,0,.21-.17.13-.38-.2-.21-.32-.38-.4-.38-.16-.01.75.47.93,1.32.48.75-.4.77-.38.29.21-.46.56-.45.65.07.65.33,0,.92.1,1.32.23.41.13.55.09.33-.1-.21-.18-.44-.58-.51-.88-.1-.46-.02-.47.5-.04.34.28.73.4.87.26s.05-.25-.2-.25-.46-.2-.46-.44c0-.31.16-.3.56.03.31.26.48.67.39.93-.1.27.22.48.77.51,1.03.06,1.04.01,2.25-9.62,1.1-8.73.54-24.08-1.27-34.96-1.1-6.63-5.21-22.47-4.91-18.95M125.29,167.49l-5.37,5.38v16.2h7.24l5.66-5.71c3.11-3.14,5.31-5.53,4.87-5.31-.43.22-1.12.77-1.53,1.22-.49.55-1.02.75-1.56.6-.65-.18-.7-.15-.23.19.49.35.32.66-1.07,1.92-.91.83-1.53,1.65-1.37,1.82.16.18.07.19-.2.04-.27-.15-.49-.56-.49-.91s.12-.51.26-.37c.41.41,1.66-.93,1.43-1.53-.12-.3-.37-.45-.56-.33-.19.12-.35.03-.35-.2,0-.62.77-.5,1.03.17.12.32.38.48.58.36.2-.12.23-.43.07-.68-.16-.25-.31-.9-.35-1.44-.03-.54-.08-1.12-.11-1.29-.03-.17-.5.18-1.05.78l-1,1.1.66-1.09c.37-.6.55-1.2.42-1.34s-.25-.04-.25.21-.26.45-.59.45-.59-.26-.59-.59-.27-.58-.61-.58-.49-.19-.34-.43c.14-.24.69-.35,1.2-.25.52.1,1.05-.02,1.19-.26.14-.24.1-.3-.07-.15-.18.16-.56.09-.84-.15-.38-.32-.67-.32-1.04,0-.28.24-.68.29-.88.12-1.02-.87-2.54-1.24-2.43-.59.06.35-.15.72-.47.81-.44.13-.46.08-.09-.18.6-.43-.79-1.89-1.42-1.5-.21.13-.52.03-.67-.22-.17-.27-.11-.35.14-.2.23.14.48.06.57-.19.1-.31.33-.26.72.13.58.58,1.54.52,1.54-.1,0-.19-.29-.23-.65-.1-.43.17-.56.1-.37-.21.15-.25.1-.76-.12-1.14-.35-.6-.4-.61-.41-.05,0,.35-.36.73-.78.84-.42.11-.75.09-.74-.05.16-1.19-.12-1.96-.64-1.76-.32.12-.46.43-.32.67.15.25-.03.21-.39-.09-.75-.61-.9-1.02-.21-.6.26.16.34.11.21-.12-.15-.24.15-.35.72-.29,1.07.12,1.22-.18.48-.97-.4-.43-.33-.48.38-.31.71.17.95-.03,1.34-1.1.26-.72.62-1.22.79-1.11.18.11.32-.03.32-.3s.92-1.43,2.04-2.56c1.12-1.13,1.95-2.06,1.85-2.06s-2.6,2.42-5.55,5.38M319.72,162.79c.16.54.09.88-.18.88-.28,0-.26.19.07.54.84.91,1.27-.36.49-1.43l-.64-.88.26.88M317.98,164.83c-.53.99-.5,1.2.15.95.3-.12.66-.02.81.21.29.48.99.18.99-.42,0-.21-.21-.26-.46-.11-.3.19-.38.07-.22-.34.35-.91-.8-1.18-1.27-.3M275.39,168.68c0,.14.53.83,1.18,1.52.88.94,1.13,1.52.99,2.29-.25,1.36-.34,1.42-1.43.94-.89-.39-.89-.4-.06-.24.48.09.98.01,1.1-.18.12-.19.01-.35-.24-.35-.33,0-.3-.19.07-.66.3-.36.33-.54.08-.39-.25.15-.55.05-.67-.22-.12-.27-.18-.16-.13.25.05.41-.16.83-.46.93-.3.1-.44.03-.32-.17.12-.2.08-.59-.09-.87-.22-.36-.4-.38-.58-.08-.15.24-.04.43.23.43.37,0,.38.11.04.45-.3.3-.33.68-.08,1.15.24.45.24.78-.02.94-.21.13-.39.06-.39-.17s-.19-.41-.43-.41c-.26,0-.34.37-.2.94.19.75.1.91-.45.81-.38-.07-.76-.14-.86-.16-.1-.02.04-.24.29-.5.58-.58.61-1.09.05-1.09-.23,0-.31.16-.19.36.12.2.04.48-.2.62-.28.17-.2.51.25,1,.58.64.59.74.07.74-.33,0-.71.28-.84.62-.39,1.03-.27,1.32.43,1.05.6-.23.61-.19.1.36-.47.51-.63.53-.88.09-.17-.29-.61-.43-.98-.32-.58.18-.57.13.06-.39.4-.33.63-.86.51-1.18-.13-.35.05-.66.44-.77.36-.1.13-.14-.51-.09-1.08.09-1.18.22-1.22,1.63-.07,2.39-.11,2.51-.8,2.51-.6,0-.6.05,0,.72.54.59.55.72.08.72-.31,0-.49-.13-.39-.3.1-.16,0-.41-.22-.55-.22-.14-.31-.4-.19-.59s-.13-.53-.56-.76c-.55-.3-.85-.28-1.05.04-.16.26-.11.35.13.2.22-.14.5.11.61.54.2.75.12.74-1.49-.2-1.15-.67-1.79-.86-1.97-.57-.16.27-1.18-.44-2.66-1.85-1.32-1.25.68.84,4.44,4.65l6.83,6.93h7.24v-16.28l-2.34-2.18c-1.29-1.2-2.34-2.06-2.34-1.92M123.64,173.42c-.16.5.08.82.89,1.16.62.25,1.12.74,1.12,1.08,0,.53-.06.54-.42.05-.23-.31-.77-.76-1.2-1-.45-.25-.79-.85-.8-1.41,0-.54.13-.89.31-.78.18.11.23.52.11.9M121.59,175.42c-.15.59-.3.68-.52.31-.34-.54-.13-1.13.41-1.13.18,0,.24.37.12.82M129.21,176.61c-.09.61.03,1.18.26,1.27.23.09.03.15-.43.12-.47-.02-.77-.18-.66-.35.11-.17-.04-.32-.32-.32-.32,0-.25-.16.17-.41.38-.22.68-.59.68-.82,0-.28-.19-.26-.56.05-.46.38-.55.33-.51-.29.04-.54.27-.7.8-.56.56.15.7.46.58,1.3M131.22,179.61c.62.21.51.73-.15.73-.31,0-.48-.15-.37-.33.11-.18.01-.32-.21-.32s-.41.26-.41.57c0,.37-.23.49-.63.33-.58-.22-.58-.27,0-.59.39-.22.64-.91.67-1.8l.04-1.45.32,1.36c.18.75.51,1.42.74,1.5M133.1,178.91c.03.45-.18.78-.52.78-.45,0-.49-.17-.16-.78.23-.43.46-.78.52-.78s.12.35.16.78M265.42,180.09c-.11.18.18.38.65.45.47.07.94.39,1.05.71.16.5.1.51-.46.05-.42-.35-.65-.38-.65-.1,0,.24-.43.06-.96-.4-1-.87-1-1.63,0-1.25.31.12.48.36.37.54M245.49,194.92c0,6.12.05,8.63.12,5.57.07-3.06.07-8.07,0-11.13-.07-3.06-.12-.56-.12,5.57M211.03,184.99c.18.18,3.7.41,8.34.56.86.03,3.47,2.3,3.08,2.69-.12.12-.37,0-.55-.29-.23-.37-.4-.39-.59-.08-.36.58.81,1.72,1.44,1.4.27-.14.23-.02-.1.27-.86.76-.71,1.88.33,2.44.99.53.33,1.79-.95,1.79-.31,0-.56.18-.56.39,0,.48.25.49,1.1.04.53-.28.67-.17.71.59.04.68-.15.94-.68.94-.41,0-.74-.18-.74-.39,0-.65-1.46-.44-1.73.25-.21.56-.16.57.41.1.51-.42.7-.43.82-.06.21.63,2.44.64,2.44.02,0-.35.11-.36.45-.02s.34.59-.03,1.04c-.28.34-.37.94-.21,1.44.21.66.34.73.6.31.41-.67,1.8-.79,1.8-.16,0,.26-.23.46-.5.46s-.41-.15-.3-.33c.11-.18.01-.32-.21-.32-.54,0-.53.51.01,1.05.26.26.31.79.12,1.35-.17.5-.28,1.04-.24,1.2.04.15-.22.17-.59.03-.38-.15-.47-.32-.21-.4.25-.08.34-.43.21-.77-.16-.41-.09-.53.21-.35.31.19.37.06.19-.4-.16-.42-.32-.5-.42-.22-.08.26-.33.47-.54.47s-.29-.14-.19-.31c.11-.17.01-.57-.21-.88-.33-.47-.36-.45-.19.1.12.37.05.78-.16.9-.63.39-.41.96.27.7.44-.17.58-.08.44.31-.11.3-.4.51-.64.45-.54-.12-.58.55-.05.88.21.13.39.02.39-.25,0-.36.12-.37.43-.07.31.31.3.66-.01,1.25-.24.45-.28.82-.08.82s.47-.4.6-.88c.2-.74.3-.79.65-.29.36.52.4.52.34,0-.15-1.36.04-2.16.37-1.63.18.29.49.55.68.59.19.04.3.2.25.36-.05.16.08.32.29.34.22.03.55.07.75.1.2.03.51.21.68.4.19.21.12.24-.16.07-.3-.17-.49-.05-.49.33,0,.72.16.74,1.29.2.78-.38.8-.37.16.15-.74.6.09,1.34.93.83.2-.12.35-.06.35.13,0,.72-.51.81-1.37.24-.65-.43-.93-.46-1.05-.12-.22.66-3.43.59-3.91-.08-.3-.43-.34-.4-.17.13.19.6-.21.68-3.77.8-2.19.07,2.39.16,10.17.21l14.16.08v-21.09h-17.06c-9.38,0-16.96.1-16.84.22M217.78,186.44c.14,1.33.15,1.35.78,1.59.48.18.46.04-.09-.84-.5-.78-.52-.94-.1-.61.6.47.77.52,1.77.52.34,0,.5.18.36.4-.13.22-.45.28-.71.14-.34-.19-.33-.12.01.25.38.42.58.42,1.08,0,.75-.62.12-1.57-1.04-1.57-.42,0-1.07-.17-1.46-.38-.59-.31-.69-.23-.61.49M216.41,186.89c0,.31.18.67.4.81.22.13.28.44.14.67-.16.26-.08.31.21.13.35-.22.36-.42.03-.82-.24-.29-.33-.72-.19-.94.14-.22.07-.41-.16-.41s-.41.25-.41.56M217.71,189.26c0,.33.16.55.36.49.19-.06.35-.28.35-.49s-.16-.43-.35-.49c-.2-.07-.36.16-.36.49M219.14,189.06c0,.36,1.09,1.56,1.42,1.56.1,0,.08-.18-.05-.39-.13-.21-.07-.39.15-.39.59,0,.9.69.44.98-.22.14-.3.41-.18.61.12.2-.03.26-.33.15-.34-.13-.63.09-.76.57-.12.45.02.86.32.98.34.13.45,0,.31-.37-.27-.7,1.24-.79,1.66-.11.19.31.07.38-.37.21-.36-.14-.65-.07-.65.16,0,.54,1.65.28,1.84-.28.08-.24-.24-.54-.7-.66-.57-.15-.77-.42-.61-.83.41-1.07-.32-2.28-1.43-2.4-.57-.06-1.04.04-1.04.22M312.65,196.48c0,2.69.06,3.79.14,2.44s.08-3.54,0-4.88-.14-.24-.14,2.44M86.07,197.78c.31-.19.31-.09-.03.32-.31.38-.34.73-.1.97.24.24-.01.4-.69.46-.73.06-.9-.03-.54-.26.37-.24.4-.42.1-.61-.24-.15-.43-.44-.43-.66s.18-.28.39-.15c.21.13.4.01.42-.27.02-.4.08-.4.23-.02.11.27.4.37.65.22M78.26,199.04c-.38.79-.33.88.36.75,1.04-.2,1.08-.27.53-1.01-.42-.57-.51-.55-.89.26M72.39,201c-.39.29-.97.53-1.29.52-.35,0-.24-.18.29-.44.48-.23.88-.58.88-.78s.19-.24.41-.1c.26.16.15.45-.29.79M79.98,200.26c.27.11.38.38.25.6-.14.23.1.21.58-.05,1.07-.57,1.05-.62-.25-.69-.59-.03-.85.03-.58.14M228.84,200.7c.58-.46.6-.44.12.17-.61.78-1.25.56-1.18-.41.04-.57.07-.57.23.04.15.6.28.63.83.19M78.76,201.87c-.11.18-.06.54.11.82.24.39.36.37.54-.1.25-.64-.32-1.26-.66-.72M226.34,202.01c-.15.24.04.61.41.83.51.29.56.46.2.69-.27.16-.4.54-.31.83.12.36.34.24.68-.4.43-.8.41-.99-.14-1.29-.35-.2-.54-.52-.41-.72.12-.2.14-.37.03-.37s-.32.2-.47.44M86.82,205.66c0,.86.08,1.16.18.68.09-.49.09-1.19,0-1.56-.1-.37-.17.02-.17.88M213.96,205.74c.48.09,1.27.09,1.76,0,.48-.09.09-.17-.88-.17s-1.36.08-.88.17M272.27,207.23c-.34.4-.35.59-.05.59.24,0,.44-.18.44-.4,0-.25.99-.37,2.54-.31,1.4.05,2.54.25,2.54.45s.27.14.6-.14c.95-.79,1.1-.23,1.13,4.11.02,2.25.16,4.1.32,4.1.16,0,.29-2.02.29-4.49v-4.49h-3.66c-2.78,0-3.78.14-4.15.59M313.09,216.77c-.68.27-.62.34.48.59.7.15,1.36.44,1.49.64.12.2.52.35.88.35.36,0-.02-.34-.86-.73-.97-.46-1.32-.8-.98-.93.3-.12.37-.22.15-.22-.21,0-.74.14-1.17.3M323.26,219.89c-.29.46.37.58,2.57.45l1.42-.08-.14,1.89c-.11,1.55-.08,1.68.19.71.76-2.71.6-3.05-1.31-2.84-.95.11-1.9.03-2.11-.18-.24-.24-.47-.22-.64.05M121.88,225.89c0,.06,1.36,1.42,3.03,3.03l3.03,2.92-2.92-3.03c-2.71-2.81-3.14-3.21-3.14-2.92M158.4,237.11c1.93,1.93,3.59,3.52,3.7,3.52s-1.38-1.58-3.3-3.52c-1.93-1.93-3.59-3.51-3.7-3.51s1.38,1.58,3.3,3.51M237.5,240.82c-1.6,1.61-2.82,2.93-2.71,2.93s1.5-1.32,3.11-2.93c1.6-1.61,2.82-2.93,2.71-2.93s-1.5,1.32-3.1,2.93M179.08,258.87c2.62,2.72,2.68,2.84,2.02,3.57-.41.45-.53.85-.29,1,.21.13.65-.13.96-.58.36-.51.67-.66.83-.4.14.23.08.42-.14.42s-.29.29-.15.65c.19.49.11.57-.3.32-.48-.29-.48-.24-.01.34.68.84.46,1.08-.69.78-.49-.13-.71-.35-.49-.49.24-.15.05-.47-.46-.79-.79-.49-.82-.48-.33.11.37.45.4.65.08.65-.25,0-.43.22-.39.49.17,1.28-.08,2.25-.57,2.25-.3,0-.65.4-.78.88-.2.73-.3.78-.63.29-.35-.53-.57-.29-.44.49.05.3-.55.43-1.42.32-.61-.08-.64.83-.05,1.42.62.62.08,1.28-1.04,1.28-.97,0-1.28-.54-.56-.98.22-.13.39-.04.39.2s.19.38.42.31c.58-.19.47-.91-.13-.85-1.71.18-2.19.59-1.53,1.29.36.38,1.08.64,1.6.6.85-.08.88-.03.3.4-.36.26-.53.63-.37.82.16.19-.02.1-.4-.18-.57-.44-.69-.44-.7.01-.01.3-.26,0-.55-.64l-.53-1.17.21,1.47c.25,1.75-.48,1.69-2.37-.18-.61-.6-1.22-1.1-1.36-1.1s.97,1.23,2.47,2.74c2.28,2.3,2.76,2.63,3.01,2.05.24-.57.28-.54.2.17-.07.61.89,1.85,3.36,4.38,1.9,1.94,3.36,3.68,3.24,3.86-.12.19,1.79,2.34,4.24,4.78l4.45,4.44.03-12.28.03-12.28-6.94-6.84c-3.82-3.76-5.72-5.57-4.23-4.02M178.34,264.09c.1.16-.04.38-.31.49-.39.16-.39.2,0,.23.27.02.49.18.49.37s-.44.25-.98.15c-.59-.11-.98,0-.98.27,0,.26-.22.33-.49.18-.27-.15-.35-.13-.18.05.48.53,1.94.65,1.62.13-.16-.25-.07-.38.2-.28.77.26.59.89-.41,1.4-.53.27-.68.48-.35.48,1.23,0,2.47-1.36,2.02-2.21-.27-.51-.29-.91-.03-1.17.25-.25.19-.39-.2-.39-.32,0-.5.13-.4.29M180.79,266.44c-.52,1.5-.73,1.44-.61-.18.06-.82.27-1.25.56-1.14.33.13.35.49.06,1.32M174.51,267.48c-.08.16-.13.56-.11.88.02.32-.11.69-.3.82-.19.13-.04.35.33.49.52.2.62.09.46-.53-.11-.43-.15-.79-.08-.79s.4-.11.74-.24c.42-.16.63,0,.65.49.02.51.1.56.25.17.32-.82-1.56-2.08-1.94-1.3M166.41,269.26c0,.07.57.64,1.27,1.27l1.27,1.15-1.15-1.27c-1.07-1.18-1.39-1.45-1.39-1.15M173.7,275.65c-.12.12-.42.08-.67-.07-.34-.21-.32-.37.07-.61.52-.32,1.03.26.6.68M209.78,283.81l-.04,9.36,2.73-2.7c1.5-1.49,2.62-2.88,2.49-3.09-.13-.21-.07-.28.15-.15.21.13,1.6-1.02,3.09-2.56,1.49-1.54,2.34-2.5,1.89-2.13-.93.77-1.51.88-1.1.22.17-.28.11-.35-.18-.17-.25.15-.35.45-.22.67.13.21-.23.81-.79,1.34-1.14,1.06-1.75,1.29-.99.37.64-.77.05-.75-.81.03-.62.56-.7.55-.94-.2-.14-.45-.43-.81-.64-.81s-.26.22-.11.49c.21.38.16.38-.22.03-.27-.25-.69-.41-.94-.36-.24.06-.31.03-.15-.06.71-.4.23-.87-.49-.49-.53.28-.78.29-.78.01,0-.22.26-.4.59-.4.96,0,.67-.53-.82-1.49-1.33-.86-1.36-.94-.68-1.49.4-.32.51-.48.26-.36-.6.3-.89-.75-.76-2.8.06-.91-.03-1.87-.19-2.13-.16-.26-.31,3.73-.33,8.88M211.86,279.98c.19.31.06.49-.36.49-.54,0-.57.1-.17.59.61.73,1.56.76,1.56.05,0-.3-.3-.78-.66-1.07-.45-.36-.57-.38-.37-.05M214.2,282.48c.07.48.31.93.52,1,.57.19.47-.82-.13-1.39-.42-.4-.5-.33-.39.39M186.31,289.51c4.89,5.1,4.4,4.92-.77-.27-2.25-2.27-3.83-4-3.51-3.85.32.15,2.25,2.01,4.27,4.12M148.75,298.53c.58.28.81.64.66,1.05-.19.51-.15.53.28.1.53-.54-.46-1.67-1.42-1.61-.23.02-.01.22.48.46M151,299.92c.39.45.85.73,1.03.62.18-.11.43.07.56.41.13.33.39.51.58.39.19-.12.35.05.35.38,0,.37-.22.51-.59.37-.32-.12-.59-.03-.59.21s-.31.43-.68.44c-.58,0-.6.06-.1.39.32.21.45.4.29.43-.16.03-.51.09-.78.14-.27.05-.88-.16-1.37-.45-.48-.29-.88-.38-.88-.19s.4.53.88.76.64.44.34.45c-.42.02-.44.15-.07.59.34.41.35.77.06,1.27-.25.42-.41.5-.42.19,0-.28-.18-.41-.37-.29-.2.12-.48-.15-.63-.61-.17-.53-.07-.96.26-1.17.4-.26.41-.34.03-.34-.27,0-.67.45-.88,1.01-.23.6-.6.93-.9.82-.28-.11-.51.04-.51.33s.15.44.32.33.33.07.33.4c0,.65-1.1.43-1.7-.33-.2-.25-.24-.15-.11.26.13.4.02.69-.26.69-.3,0-.26.14.11.38.32.21.41.38.19.39-.21,0-.13.18.2.39.46.29.34.38-.5.38-.91,0-1.01.1-.59.55.28.3.61.48.73.41.12-.08.23.11.23.41s-.1.54-.23.52c-.98-.11-1.6.13-1.36.52.18.3.1.35-.23.14-.41-.25-.38-.41.13-.78.35-.26.53-.57.4-.7-.63-.63-1.45.98-.93,1.82.47.76.46.79-.13.3-.56-.46-.65-.45-.65.1,0,.35-.29.63-.63.63-.52,0-.54-.11-.15-.59.42-.51.32-.55-.74-.34-1.07.21-1.2.15-.99-.49.18-.56.15-.61-.15-.19-.32.45-.86.29-3.06-.88-1.47-.78-2.25-1.12-1.74-.74,2.3,1.68,7.23,4.01,8.01,3.79.58-.16.66-.12.28.14-1.38.96,14.23,6.95,25.53,9.81,6.45,1.63,20.85,3.86,21.4,3.31.05-.05.03-3.88-.03-8.52l-.11-8.43h-1.38c-7.15,0-23.95-4.28-33.88-8.64-1.97-.86-3.82-1.67-4.11-1.8-.33-.14-.27.08.17.59M152.02,304.26c.43-.23.89-.31,1.03-.18.13.13-.14.34-.62.47-.47.12-.76.38-.65.57.12.19-.06.24-.4.11-.33-.13-.59-.52-.57-.87.02-.4.11-.46.23-.16.15.36.4.38.98.07M235.13,305.07c-2.31,1.35-17.18,4.31-24.14,4.8l-1.31.09v8.4c-.01,4.62.09,8.38.23,8.35.14-.02,1.77-.17,3.62-.32,7.14-.58,17.24-2.62,25.33-5.13,5.61-1.74,10.74-3.77,10.49-4.17-.14-.23-.33-.24-.48-.02-.22.33-3.28,1.67-3.81,1.67-.13,0-.12-.48.01-1.07.23-1.02.21-1.04-.35-.32-.33.42-.6.59-.6.39,0-.2-.18-.1-.38.22-.33.51-.38.5-.38-.07,0-.36.21-.74.48-.85.39-.16.39-.2,0-.23-.76-.05-.58-.81.19-.82.55,0,.57-.08.14-.35-.58-.37-1.66.32-1.34.85.1.16-.05.3-.33.3-.36,0-.38.09-.07.29.32.21.3.43-.1.79-.44.41-.55.41-.59,0-.02-.28-.07-.77-.1-1.09-.03-.32.12-.71.34-.87.21-.16-.01-.29-.51-.29-.5,0-.79.17-.66.38.13.21.06.39-.17.39s-.41.2-.41.43.24.34.52.23c.29-.11.52.05.52.35,0,.64-.49.73-.85.15-.13-.22-.43-.29-.65-.15-.26.16-.25-.05.03-.55.24-.44.43-.89.43-.99,0-.35-2.43-1.42-2.76-1.21-.18.11-.17-.33.02-.98.19-.65.24-1.18.11-1.18s.06-.32.42-.71c.36-.39.53-.83.39-.97-.38-.38-1.34.54-1.05,1,.14.22,0,.31-.3.2-.3-.11-.5-.38-.46-.6.05-.22-.26-.31-.68-.2-.79.21-1.09,1.28-.35,1.28.23,0,.3-.22.17-.49-.14-.27-.01-.21.27.13.29.34.78.55,1.1.46.49-.14.5-.1.04.22-.64.45-1.6.19-2.24-.6-.3-.37-.54-.41-.71-.14-.14.23-.46.41-.72.4-.26,0,.24-.45,1.1-.98.86-.53,1.47-.98,1.37-.99-.11-.02-.49-.09-.85-.16-.36-.07-.76.14-.88.46-.12.33-.48.49-.81.36-.4-.15-.58.03-.58.56,0,.64-.1.7-.53.29-.69-.65-.61-1.97.14-2.17.51-.14.51-.11.01.24-.32.22-.46.51-.32.65.49.48,1.09-.26,1.06-1.31-.02-.58-.12-.83-.23-.56-.11.27-.37.49-.58.49s-.27-.18-.14-.39c.13-.21-.01-.39-.32-.39s-.76-.25-1.01-.55c-.25-.3-.84-.47-1.32-.38-.8.15-.81.14-.08-.18.53-.23,1.07-.16,1.66.23.93.61,1.21.19.41-.61-.54-.54.02-.62.81-.12.3.19.42.53.27.77-.17.28-.03.34.4.17.6-.23.57-.33-.22-.97-.85-.69-.85-.72-.09-.72.43,0,.88.22.99.49.13.32.21.28.23-.12.02-.34.6-.9,1.3-1.25.7-.35,1.09-.64.88-.64-.21,0-.66.15-1,.34M146.62,307.65c.33.12.51.46.4.74-.11.28,0,.64.26.8.34.21.32.37-.07.62-.82.52-1.22.41-.96-.27.13-.34.05-.95-.17-1.37-.43-.81-.37-.88.54-.52M233.52,309.53c-.19,1.66-.18,1.66.92.56.65-.65.69-.79.18-.59-.37.14-.59.12-.48-.05.1-.17.05-.54-.13-.82-.21-.34-.37-.03-.48.9M235.7,309.04c.13.66,1.28.75,1.28.1,0-.38-.14-.42-.48-.14-.33.28-.55.27-.69-.02-.12-.25-.17-.23-.11.05M238.86,312.04c.09.09-.09.42-.41.73-.76.76-.71,1.19.18,1.66.72.38,1.58-.52,1.03-1.08-.11-.11-.21,0-.21.25s-.26.46-.59.46-.59-.19-.59-.41.18-.3.39-.17c.21.13.39-.01.39-.33,0-.68,1.29-1.26,1.49-.67.08.23.33.41.57.41.9,0-.55-.98-1.48-.99-.52-.01-.87.05-.78.14M241.7,319.53c.13.47.08.48-.21.07-.3-.42-.41-.4-.6.1-.13.34-.46.62-.74.61-.38,0-.37-.09.04-.35.3-.19.41-.55.25-.81-.19-.31-.06-.43.41-.34.38.07.77.4.86.72" fill="#d4af37" fill-rule="evenodd"/>
      <path id="path3" d="M279.28,116.89c.96,1.02,1.79,1.86,1.85,1.86.29,0-.02-.35-1.74-1.97l-1.86-1.74,1.74,1.86M88.93,133.11c-.1.16.06.51.35.77.29.27.6.35.7.2.1-.16-.06-.51-.35-.77-.29-.27-.6-.35-.7-.2M86.02,134.5c-.57,1.58-.59,1.95-.08,1.63.22-.13.39.16.4.66,0,.71.08.78.37.33.23-.36.22-.75-.02-1.03-.44-.53-.33-1.4.23-1.79.25-.18.25-.42-.02-.68-.28-.28-.55,0-.88.89M156.24,135.45l-2.13,2.25,2.25-2.14c2.09-1.98,2.42-2.36,2.13-2.36-.06,0-1.07,1.01-2.25,2.25M87.57,134.41c-.28.45-.41.92-.29,1.04.12.12.22,0,.22-.26s.14-.39.31-.29c.17.11.33-.15.37-.56.07-.95.02-.94-.61.06M89.28,135.71c.61.93-.39,2.18-1.48,1.87-.5-.14-.32.62.19.83.27.11-.04.23-.68.27-1.14.07-1.15.08-.2.35.54.15,1.03.15,1.1-.02.07-.16.37-.2.67-.09.43.16.44.36.09.93-.25.4-.59.64-.76.53-.6-.37-.31.15.37.67.38.29.56.37.4.19-.15-.18-.09-.69.14-1.12.4-.74.45-.75.81-.1.28.5.24.79-.14,1.03-.36.23-.38.34-.07.34.82.01.99-.78.38-1.72-.38-.59-.46-1.04-.22-1.29.24-.24.17-.38-.2-.38-.32,0-.49.15-.38.32.11.18.02.33-.21.33s-.41-.26-.41-.59.26-.59.59-.59.59-.19.59-.41.18-.3.39-.17c.21.13.39.05.39-.17s-.2-.41-.44-.41c-.29,0-.25-.23.1-.66.47-.58.45-.63-.15-.4-.38.14-.68.09-.68-.12s-.18-.38-.4-.38-.12.43.22.95M90.87,137.81c-.09.15.06.49.34.75.4.37.55.35.71-.07.21-.55-.76-1.18-1.06-.68M93.96,139.04c-.13.21-.53.27-.9.13-.71-.25-.67-.19.35.59.53.4.67.35.84-.31.22-.84.08-1.03-.3-.42M86.33,140.04c.57.68-.02.8-.68.14-.34-.33-.39-.24-.23.38.18.69.35.76.98.42.69-.37.42-1.53-.36-1.53-.11,0,.02.26.29.59M100.42,140.57c-.23.43-.42,1.02-.42,1.3,0,.28.27,0,.59-.62.32-.62.51-1.21.42-1.3-.09-.09-.36.18-.59.62M91.39,142.01c-.5.6.57,2.1,1.1,1.56.15-.15-.07-.52-.48-.83-.42-.3-.55-.57-.29-.6,1-.11,1.19-.15,1.39-.36.12-.12-.12-.24-.53-.27-.41-.03-.94.19-1.19.49M96.89,142.95c-.3.57-.27.89.12,1.26.29.27.45.79.36,1.15-.09.36.03.78.28.93.26.16.42.06.38-.25-.17-1.26,0-1.74.41-1.11.32.5.38.49.38-.1,0-.63-.44-.87-1.31-.71-.19.03-.26-.38-.15-.93.23-1.19.08-1.26-.47-.23M94.35,144.9c-.14.23-.42.32-.62.2-.2-.12-.24.08-.1.45.17.45.11.58-.2.39-.25-.15-.46-.1-.46.13,0,.65.7.48,1.14-.27.36-.62.4-.6.41.17,0,.49-.28.93-.67,1.03-.51.13-.47.19.19.22.64.03.88-.17.88-.76,0-.54.16-.71.49-.51.3.18.27,0-.09-.46-.31-.42-.6-.81-.64-.88-.04-.07-.19.07-.33.3M95.75,146.63c-.36.43-.26.5.53.35.54-.1.88-.34.76-.53-.31-.5-.79-.43-1.29.19M322.53,158.46c-.46.46-.28.82.51,1.02.66.17.71.09.38-.54-.44-.82-.51-.86-.89-.48M321.74,161.54c.12.31-.03.66-.33.77-.62.24-.86,1.75-.27,1.75.21,0,.28-.18.15-.39s-.05-.39.17-.39.41-.25.41-.56.18-.67.4-.81.35-.04.29.22c-.06.26.08.54.32.63.84.31.4-.98-.47-1.38-.73-.33-.85-.3-.68.16M318.22,163.87c-.12.32-.42.59-.65.59s-.33-.16-.21-.35c.12-.19-.14-.26-.58-.14-.56.15-.72.4-.54.84.15.35.27.84.28,1.08s.29.35.62.22c.4-.15.44-.28.13-.39-.26-.09-.47-.34-.47-.56s.26-.3.59-.18c.32.12.59.01.59-.25,0-.33.11-.32.34.05.24.37.34.23.34-.49,0-1.16-.11-1.27-.43-.43M319.41,164.6c-.36.94-.34,1.11.12.83.21-.13.39-.08.39.11,0,.62-.5.87-.97.48-.32-.26-.46-.21-.46.18,0,.31.13.48.29.38.16-.1.36.04.45.31.1.29.38.1.7-.49.64-1.16.83-2.03.38-1.76-.18.11-.39-.01-.48-.27-.1-.29-.26-.2-.42.22M310.76,167.32c-.51.37-.58.61-.26.81.25.15.36.45.23.64-.12.2-.02.67.22,1.05.42.65.43.65.23,0-.12-.38-.03-.68.19-.68s.28-.2.13-.44c-.15-.24-.03-.59.27-.77.45-.28.44-.34-.05-.35-.52-.01-.52-.05,0-.39.32-.21.4-.38.17-.39-.23,0-.74.23-1.13.52M313.52,167.76c.17.43.06.54-.36.38-.33-.12-.71-.03-.85.2-.14.24-.12.4.06.37.86-.15,1.32.08,1.06.53-.15.27-.13.35.05.19.5-.45.62-1.77.18-2.04-.22-.13-.28.03-.15.38M311.79,170.12c-.24.54-.32.97-.16.97.16,0,.49-.44.74-.98.25-.54.32-.97.16-.97s-.49.44-.74.98M125.96,169.95c-.14.23-.5.32-.8.21-.6-.23-1.19,1.39-.76,2.08.42.69,1.5.5,1.22-.22-.16-.41-.07-.56.26-.44.33.13.51-.19.54-.93.05-1.21-.06-1.37-.47-.71M125.78,170.85c0,.08-.26.37-.59.63-.48.4-.59.37-.59-.15,0-.35.26-.63.59-.63s.59.07.59.15M129.8,172.06c-.38.43-.32.73.29,1.45l.77.91-.34-.98c-.18-.54-.26-1.2-.16-1.46.22-.63.04-.6-.57.08M273.52,172.29c-.47.75-.13,1.23,1.02,1.4.41.06.41-.04.02-.51-.39-.47-.38-.65.01-.89.39-.24.38-.35-.05-.52-.3-.12-.75.12-1,.51M277.16,173.03c-.13.21-.53.28-.9.16-.57-.18-.58-.15-.08.21.79.57,1.05.54,1.31-.15.25-.65.03-.79-.33-.21M127.17,173.79c-.29.47,1.31,1.26,1.88.92.18-.11.49.04.68.34.27.43.34.39.35-.15,0-.38-.26-.68-.58-.68s-.59-.22-.59-.49c0-.33-.13-.29-.39.1-.32.49-.44.5-.73.06-.24-.37-.42-.4-.61-.09M124.02,174.69c.43.25,1,.72,1.28,1.06.42.52.48.53.39.03-.11-.6-1.36-1.53-2.06-1.54-.22,0-.04.2.39.45M120.95,174.92c-.11.17-.05.54.12.81.23.37.37.28.52-.31.21-.79-.25-1.14-.64-.5M139.45,174.88c0,.17-.44.83-.98,1.45-.54.62-.98,1.29-.98,1.49,0,.3.85-.54,2.33-2.31.26-.31.26-.55,0-.71-.21-.13-.39-.1-.39.08M271.18,175.21c-.42.48-.37.57.34.57s.76.1.38.55c-.38.46-.32.52.33.35.73-.19.75-.26.17-1.14-.34-.51-.64-.93-.67-.92-.03,0-.28.27-.56.59M132.45,175.76c-.02.52.36,1.39.85,1.92.69.76.74.92.2.72-.54-.2-.61-.11-.32.43.2.37.45.98.57,1.35.23.73,1.02.95,1.02.29,0-.21-.22-.39-.49-.4-.32,0-.29-.13.1-.38.39-.25.42-.38.1-.39-.27,0-.49-.2-.49-.44,0-.3.18-.29.59.05.44.36.59.37.59.02,0-.25.19-.35.41-.21.26.16.15.45-.29.79-.39.29-.52.54-.29.55.77.02,2.23-1.83,1.7-2.15-.31-.19-.38-.14-.2.15.17.27.02.45-.37.45-.42,0-.57-.21-.43-.59.12-.32.05-.59-.15-.59s-.38.26-.38.59c0,.49-.13.51-.76.12-.42-.26-.67-.62-.56-.79.11-.18.39-.2.62-.06.26.16.31.08.13-.21-.16-.26-.53-.39-.82-.28-.31.12-.67-.22-.91-.85q-.38-1.05-.42-.1M268.7,175.59c-.03.11-.07.38-.1.6-.03.22-.29.55-.58.73-.37.23-.4.41-.1.59.24.15.43.08.43-.15s.16-.41.36-.41.3.31.24.68c-.06.38-.33.64-.58.58-.26-.06-.35.07-.22.29.29.46-.25.54-.8.11-.21-.16-.02.03.41.43.43.4.81.88.84,1.07.03.19.09.48.14.64.05.16.08.4.07.52-.01.12.23.23.54.23.48,0,.47-.11-.05-.67-.48-.54-.51-.72-.1-.88.36-.14.37-.21.04-.24-.26-.02-.37-.3-.25-.63.18-.46.35-.49.77-.15.76.63.7-.21-.07-.99-.34-.34-.43-.61-.2-.61s.42-.19.42-.41-.18-.3-.39-.17c-.35.22-.56-.3-.44-1.07.05-.32-.31-.41-.39-.1M261.79,177.35c.97,1.31,1.48,1.49,1.31.48-.06-.38-.31-.64-.55-.59-.24.05-.44-.06-.44-.25s-.27-.45-.59-.57c-.41-.16-.33.13.27.93M128.26,177.53c0,.24.37.46.81.48.45.02.59-.05.32-.15-.27-.1-.41-.32-.31-.48.1-.16-.05-.29-.32-.29s-.5.2-.5.44M271.19,177.63c-.27.09-.49.34-.49.55s.17.28.37.15c.2-.12.51.02.68.33.27.47.4.46.89-.07.51-.55.5-.59-.07-.37-.38.15-.7.04-.77-.26-.07-.28-.34-.43-.61-.34M263.77,177.94c.16.17.07.58-.19.91-.39.48-.39.54,0,.3.3-.18.59-.03.75.41.32.89,1.69,2.25,1.69,1.68,0-.24.18-.32.39-.19.21.13.39.04.39-.21s.26-.36.59-.23c.76.29.74.15-.15-.87-.63-.72-.77-.76-.97-.24-.14.35-.07.51.15.38.21-.13.39-.07.39.13s-.26.47-.58.6c-.6.23-1.56-1.03-1.57-2.06,0-.31-.27-.64-.59-.74-.32-.1-.45-.04-.3.13M130.08,179c0,.35-.28.8-.63,1-.58.32-.58.37,0,.59.39.15.63.04.63-.3,0-.3.22-.62.49-.72.39-.14.39-.28,0-.7-.4-.43-.49-.4-.49.13M132.42,182.23c-.5.54-.81.98-.67.98s.72-.44,1.3-.98c.58-.54.88-.98.67-.98s-.79.44-1.3.98M215.23,185.7c0,.09.53.34,1.17.57.95.33,1.17.3,1.17-.16,0-.37-.41-.57-1.17-.57-.64,0-1.17.07-1.17.16M218.43,185.99c.69.44,1.88.42,1.88-.03,0-.2-.54-.35-1.2-.33-.79.02-1.02.14-.68.36M217.66,188.03c.49.51,1.04.84,1.21.74.38-.22-1.08-1.67-1.69-1.67-.23,0-.02.42.47.93M219.29,187.73c.13.34.24.74.24.88,0,.35.76-.83.77-1.2,0-.16-.28-.29-.62-.29-.41,0-.55.21-.39.62M219.01,190.45c.12.31.36.48.53.37.17-.11.22.16.11.6-.19.75-.24.75-.72.1-.48-.63-.5-.62-.3.19.31,1.23.8,1.43,1.11.46.18-.55.46-.74.9-.57.35.13.51.12.36-.03-.15-.15-.1-.5.13-.77.28-.34.28-.57,0-.74-.23-.14-.41.06-.42.45,0,.42-.12.54-.29.29-.48-.71-1.65-.99-1.4-.35M221.68,191.8c.13.21-.12.39-.57.39s-.8.16-.8.35.42.32.94.29c.52-.03.87-.17.78-.32-.09-.14.05-.33.31-.42.29-.1.21-.26-.21-.42-.41-.16-.59-.11-.45.12M220.39,194.04c.08.41.52.71,1.1.75.86.06.87.04.09-.12-.48-.1-.88-.36-.88-.58s.18-.28.39-.14c.22.13.39.06.39-.17s-.28-.41-.61-.41c-.38,0-.56.27-.48.68M223.7,195.87c-.13.33-.48.51-.79.39-.31-.12-.68-.02-.83.23-.19.3-.44.21-.8-.27-.49-.66-.51-.65-.32.14.22.87,1.8,1.58,2.03.9.07-.21.27-.3.44-.19.53.33,1.36-.95.9-1.4-.27-.27-.47-.21-.63.21M82.82,196.97c0,.38.21.69.48.69.32,0,.29.13-.1.38-.5.32-.49.38.1.39.38,0,.68.18.68.38s-.26.28-.59.15c-.32-.12-.58-.02-.58.23s.16.36.36.24c.2-.12.44,0,.54.27.12.34.31.37.61.09.31-.29.16-.84-.53-1.95-.59-.96-.96-1.29-.97-.87M76.13,198.54q-.46.87.38.13c.93-.83,1.02-1.01.46-1.01-.21,0-.58.4-.84.88M80.86,197.82c0,.09.3.46.66.83.62.62.58.65-.68.42-.74-.13-1.1-.13-.81,0,.45.2.45.29,0,.58-.36.23-.1.32.78.26,1.51-.1,1.96-.79,1.1-1.66-.58-.58-1.04-.77-1.04-.43M84.88,198.48c.55.88.92.95.92.18,0-.31-.31-.64-.69-.74-.59-.15-.62-.07-.23.56M222.27,198.46c0,.18.35.25.78.17.7-.13.96.21.83,1.07-.02.16.13.29.35.29s.39-.18.39-.39.17-.39.37-.39.29.38.2.85c-.13.66-.06.75.31.38.54-.54-.11-1.89-.84-1.72-.24.05-.43-.06-.43-.24s-.44-.34-.98-.34-.98.14-.98.32M73.58,199.7c-.38.61.08.7.82.17.63-.46.64-.52.05-.52-.36,0-.75.16-.87.35M78.32,200c.32.36.49.75.37.87-.12.12,0,.35.26.52.3.19.38.13.2-.16-.17-.28,0-.46.43-.46.59-.01.56-.1-.18-.51-.49-.27-.8-.59-.68-.7.11-.12-.06-.21-.38-.21-.52,0-.52.07,0,.65M222.78,199.9c-.13.38-.31.82-.4.98-.09.16,0,.29.21.29s.45-.44.55-.98c.21-1.12,0-1.3-.36-.29M220.52,199.97c-.12.2-.04.48.18.61.22.14.31.4.19.59-.11.18.01.46.29.62.27.16.36.14.2-.04-.16-.18,0-.78.34-1.33s.4-.79.12-.52c-.62.58-1.29.65-.95.1.13-.21.15-.39.05-.39s-.3.16-.42.36M72.27,200.32c0,.27-.4.65-.88.86-.77.33-.78.36-.1.29.43-.05.99.05,1.24.21.75.47,1.05-.52.37-1.21-.43-.43-.63-.47-.63-.14M76.2,200.68c.02.43.1.5.23.18.17-.41.32-.41.85,0,.58.45.59.43.11-.18-.29-.38-.69-.68-.88-.68s-.33.31-.31.68M85.57,200.2c.18.94-.06,1.33-.7,1.12-.57-.18-.59-.15-.1.19.85.6,1.95-.5,1.22-1.22-.27-.27-.47-.32-.43-.1M225.79,201.29c0,.43-.19.6-.46.43-.28-.17-.35-.11-.18.17.3.49,1.6.41,2.08-.12.17-.18.09-.21-.16-.07-.26.15-.65-.04-.87-.43-.38-.66-.4-.66-.41.01M75.14,202.15c-.12.32-.38.49-.57.37-.6-.37-.38.1.31.66.46.37.57.38.37.04-.18-.29-.05-.59.31-.73.68-.26.83-.93.21-.93-.22,0-.5.26-.63.58M76.86,201.83c.27.1.49.43.49.72s.13.61.29.71c.16.1.29-.21.29-.68,0-.59-.25-.88-.78-.9-.43-.02-.56.05-.29.15M70.7,203.26c0,1.66.35,2.66.83,2.37.2-.12.24-.41.1-.64-.14-.23-.24-.92-.23-1.53.02-.61-.13-1.21-.33-1.33-.2-.12-.36.39-.36,1.13M73.2,203.03c-.68.45-1.07,2.04-.5,2.04.26,0,.36-.12.22-.26-.14-.14,0-.67.33-1.17.64-.97.63-1.06-.05-.61M225,203.18c0,.16.35.26.78.22.43-.03.78-.19.78-.34s-.35-.26-.78-.22c-.43.03-.78.19-.78.34M227.57,203.47c-.15.24-.08.43.15.43s.41.19.41.43-.26.33-.57.21c-.32-.12-.65-.09-.75.07-.1.16-.98.24-1.97.19-.98-.06-1.79.04-1.79.21,0,.49,5.24.17,5.4-.33.1-.29.43-.24,1.04.15.87.57,1.37.48,1.37-.24,0-.19-.17-.24-.38-.11-.41.25-2-.46-2.4-1.07-.15-.23-.35-.2-.51.06M162.82,206.54c4.79.06,12.53.06,17.19,0,4.66-.06.74-.11-8.72-.11-9.45,0-13.26.05-8.47.11M219.26,206.54c4.04.06,10.55.06,14.45,0,3.91-.06.6-.12-7.35-.12s-11.15.05-7.1.12M278.27,207.62c-.12.32-.38.49-.57.37-.19-.12-.35-.05-.35.16s.44.35.98.32c.65-.04.98-.29.98-.74,0-.83-.72-.9-1.03-.1M312.22,216.8c0,1.18.08,1.65.17,1.04.13-.87.33-1.07.92-.91.41.11.66.05.55-.12-.11-.18.02-.42.29-.53.27-.12.02-.12-.55,0-.86.18-1.07.06-1.22-.7-.1-.5-.17.05-.17,1.24M320.65,217.19c-.03.21-.09.57-.15.78-.05.22-.12.67-.15,1.02-.03.41-.27.54-.69.38-.54-.21-.56-.15-.13.37.37.44.59.49.79.16.21-.34.32-.32.45.04.09.27.17-.32.18-1.32.01-1.61-.17-2.48-.3-1.42M321.72,217.41c-.66,1.72.2,2.61,1.39,1.43.33-.33.23-.39-.39-.22-.61.16-.84.04-.84-.43,0-.36.17-.55.39-.42.22.14.29-.02.15-.37-.29-.76-.4-.76-.69.01M316.66,218.45c.12.19.45.26.73.15.28-.11.61.05.73.36.12.31.02.56-.23.56s-.34.11-.21.24c.13.13.42.12.66-.03.63-.39-.14-1.51-1.09-1.58-.44-.03-.71.1-.59.29M311.33,220.12c0,.78.15,1.32.34,1.2.19-.12.34-.66.34-1.2s-.15-1.09-.34-1.2c-.19-.12-.34.43-.34,1.2M324.58,218.85c-.34,1.1-.19,1.3.83,1.15.74-.11,1.03-.34.89-.71-.24-.63-.91-.74-.91-.15,0,.21-.19.39-.41.39s-.3-.18-.17-.39c.13-.22.14-.39.02-.39s-.23.04-.25.1M325.05,221.39c.05.92.08.95.22.2.09-.48.31-.88.49-.88.51,0,.7,2.28.24,2.8-.26.3-.16.28.26-.04.79-.6.9-2,.21-2.69-.82-.82-1.49-.53-1.43.61M323.69,221.01c-.11.18-.06.54.11.82.24.39.36.37.54-.1.25-.64-.32-1.26-.66-.72M148.05,226.76c2.46,2.47,4.57,4.49,4.68,4.49s-1.82-2.02-4.28-4.49c-2.46-2.47-4.57-4.49-4.68-4.49s1.82,2.02,4.28,4.49M178.9,260.36c-.27.33-.38.7-.24.84s.25.06.25-.18.31-.49.68-.56c.45-.09.53-.23.24-.42-.24-.15-.66-.01-.93.31M178.42,262.96c-.73.77-.91,1.3-.32.93.2-.12.46-.08.57.11.28.46,1.92.3,2.09-.21.07-.22-.14-.52-.49-.65-.34-.13-.53-.08-.41.11.24.4-.76.88-1.11.53-.13-.13-.03-.47.21-.76.68-.82.23-.87-.55-.06M178.91,265.23c0,.21.43.35.96.3,1.08-.09.98-.39-.19-.57-.42-.06-.77.05-.77.27M174.32,265.89c.38.42.57.89.42,1.03-.14.14.09.26.53.26s.96.38,1.17.86c.26.58.47.71.67.39.16-.26.1-.46-.13-.46s-.41-.2-.41-.43c0-.27.41-.35,1.07-.21.59.12.85.12.57,0-.36-.16-.39-.36-.09-.72.3-.37.26-.56-.16-.72-.39-.15-.51-.04-.36.35.12.31.02.57-.21.57s-.43-.18-.43-.4c0-.27-.25-.27-.78.01-.43.23-.78.28-.78.11s-.4-.55-.88-.85c-.86-.53-.86-.52-.19.23M167.27,269.52c.27.43.75.87,1.07,1,.32.12.16-.23-.35-.77-1.12-1.2-1.37-1.27-.72-.22M173.87,270.07c-.25.3-.34.82-.2,1.17.13.35.05.64-.19.64s-.43.2-.43.44c0,.31.15.32.49.04.27-.22.91-.46,1.43-.54.52-.08,1.03-.4,1.14-.72.16-.48.09-.5-.41-.09-1.08.89-2.37-.04-1.4-1,.26-.26.37-.47.24-.47s-.43.24-.67.54M171.83,270.61c-.03.27-.1.66-.15.88-.05.21-.12.58-.15.8-.03.23-.23.3-.45.17-.22-.14-.31-.39-.19-.57.11-.18-.19-.22-.68-.09-.63.17-.71.28-.25.37.35.07.85.55,1.12,1.06.64,1.2,1.96,1.59,1.96.59,0-.4-.2-.85-.45-1-.28-.17-.34-.11-.17.17.17.27.03.45-.33.45-.76,0-.77-.38-.05-1.4.36-.52.43-.99.2-1.36-.25-.4-.37-.42-.41-.07M173.75,272.95c-.23.28-.31.62-.17.76s.25.02.25-.25c0-.4.14-.4.68.02.38.29.55.37.4.18-.16-.19-.01-.54.32-.78.52-.38.49-.44-.22-.44-.46,0-1.02.23-1.25.51M216.61,283.75c.66.48.68.62.17,1.27-.54.68-.52.69.21.15.43-.32.86-.62.95-.69.23-.16-1.25-1.25-1.71-1.26-.2,0-.03.23.38.53M148.02,298.99c.23.27.31.6.18.73-.13.13.14.13.59.02.95-.25.79-.72-.36-1.02-.62-.16-.71-.1-.4.28M150.1,300.36c.03.41.2.67.37.56.17-.11.22-.34.11-.53s.02-.42.29-.53c.31-.12.24-.21-.17-.23-.42-.02-.64.24-.6.72M150.99,301.15c-.16.49-.51.7-1.01.61-.46-.09-.96.16-1.25.61-.26.42-.62.76-.8.76s-.22-.16-.09-.36c.12-.2.08-.45-.09-.56-.17-.11-.34.14-.37.56-.08,1.01,1.3,1.01,1.56,0,.14-.55.43-.7,1.02-.54.95.25,1.11.91.23.91-.33,0-.7.27-.83.61-.13.33-.46.52-.75.41-.33-.13-.44,0-.29.38.12.32.49.53.82.47.33-.06.68.12.77.38.11.31-.05.4-.45.25-.35-.13-.62-.04-.62.22s.18.35.39.21c.22-.13.4-.01.4.27,0,.31.17.25.41-.18.22-.38.26-.9.1-1.17-.56-.89-.46-1.46.26-1.46.5,0,.65.21.52.73-.12.44.06.82.45.97.35.14.54.09.43-.1-.12-.19.18-.44.65-.57.47-.12.75-.33.62-.47-.13-.13-.61-.05-1.06.19-.89.48-1.1.06-.35-.68.36-.36.34-.47-.09-.47-.35,0-.23-.23.31-.61.48-.33,1.04-.5,1.26-.37.21.13.39-.04.39-.39s-.17-.53-.37-.41c-.2.12-.55-.08-.77-.46-.37-.63-.4-.61-.42.16,0,.47-.21.98-.46,1.13-.32.19-.37-.03-.19-.76.3-1.19.03-1.41-.33-.28M144.53,305.6c.54.28,1.06.45,1.16.36.27-.23-.88-.88-1.55-.88-.32,0-.15.23.39.51M235.74,305.47c-.13.21-.58.39-1,.39s-.76.16-.76.35c0,.52,2.07.81,2.74.38.43-.28.36-.31-.29-.13-.51.14-.88.07-.88-.18,0-.23.44-.42.98-.42s.98-.18.98-.39-.34-.39-.76-.39-.87.18-1,.39M143.9,306.35c.04.27.29.87.55,1.34.36.66.36.89-.02,1.04-.27.11.04.2.69.2s.95-.09.68-.2c-.27-.11-.37-.39-.23-.62.15-.25.07-.3-.19-.14-.27.16-.45.03-.45-.33,0-.34-.19-.61-.41-.61s-.31-.16-.19-.36c.12-.2.06-.46-.14-.59-.2-.12-.32,0-.28.27M232.18,307.59c-.12.31-.5.47-.87.35-.54-.17-.55-.14-.08.19.31.22.74.3.95.17.22-.13.27.04.13.42-.14.36-.08.65.13.65s.38-.22.38-.49c0-.33.13-.29.39.1.26.41.38.44.38.09,0-.28-.27-.61-.6-.73-.33-.13-.52-.48-.4-.77.11-.29.12-.54.01-.54s-.29.25-.41.56M146.09,308.17c0,.34,1.07,1.59,1.36,1.59.07,0-.07-.44-.32-.97-.45-.96-1.04-1.32-1.04-.62M143.29,309.33c.68.43-.31.86-1.46.64-.56-.11-.71.01-.55.43.12.32.46.49.76.38.29-.11.54-.04.54.17s-.21.38-.46.38-.34.12-.2.26c.14.14.06.49-.18.78-.33.4-.29.52.2.52.35,0,.63-.29.63-.63,0-.55.09-.56.65-.1.59.49.6.46.11-.32-.46-.74-.44-.96.13-1.59.66-.73.54-1.26-.28-1.25-.23,0-.19.15.1.34M232.57,310.69c-.7.71-.75.92-.29,1.34.45.42.54.36.54-.32,0-.45.14-.73.31-.63.17.1.34-.15.37-.56.03-.41.02-.74-.02-.71-.04.02-.45.42-.91.88M235.95,310.14c-.49.31-.48.4.1.62.37.14.57.42.45.61-.34.54.46.41.93-.15.26-.32.28-.71.05-1.07-.25-.39-.36-.42-.37-.08,0,.27-.19.49-.42.49s-.3-.18-.17-.39c.3-.48.17-.48-.57-.02M190.58,312.99c-.17,3.06-.11,8.11.1,9.09.14.64.26-1.34.27-4.4.02-4.7-.21-7.64-.37-4.69M239.55,312.37c-.68.27-.61.78.1.78.32,0,.59-.23.59-.52s-.04-.51-.1-.49c-.05.02-.32.12-.59.23M238.28,313.67c0,.24-.18.33-.39.2-.22-.13-.39-.08-.39.11,0,.29.85.83,2.4,1.54.14.07.15-.27.03-.75s-.3-.66-.38-.41c-.08.25-.42.35-.75.23-.43-.16-.47-.31-.13-.51.33-.21.34-.36.03-.55-.24-.15-.43-.07-.43.17M241.41,315.28c-.49.36-.48.39.1.2.78-.25.87.23.26,1.37-.25.46-.66.7-1,.57-.34-.13-.47-.05-.32.19.14.23.49.32.78.21.29-.11.62.01.73.27.13.29.2.24.17-.12-.07-1.22.07-1.6.51-1.33.3.18.34.1.13-.24-.24-.38-.14-.45.36-.26.38.14.95.26,1.28.26.52,0,.53.1.07.68-.47.61-.46.63.09.2.34-.27.75-.36.9-.21.15.15.12-.15-.07-.67-.19-.52-.58-1.02-.85-1.11-.3-.1-.39.01-.23.27.41.66-.79.54-1.48-.14-.69-.69-.67-.69-1.42-.15M246.1,317.14c.01.48.76,1.41.77.95,0-.25.31-.52.69-.61.47-.1.35-.21-.39-.36-.59-.12-1.07-.11-1.07.02M209.47,323.44c0,.75.08,1.06.18.68.1-.38.1-.99,0-1.37-.1-.38-.18-.07-.18.68" fill="#ff9700" fill-rule="evenodd"/>
      <path id="path4" d="M106.82,104.39l-1.54,1.66,1.66-1.54c1.54-1.44,1.84-1.78,1.54-1.78-.06,0-.81.75-1.66,1.66M194.07,151.07c3.29.07,8.56.07,11.72,0,3.16-.07.46-.12-5.98-.12s-9.03.05-5.74.12M130.27,161.43l-5.46,5.57,5.57-5.46c5.17-5.08,5.74-5.67,5.46-5.67-.06,0-2.56,2.51-5.57,5.57M280.64,181.25c0,4.83.06,6.81.12,4.4.07-2.42.07-6.37,0-8.79-.07-2.42-.12-.44-.12,4.4M330.59,196.48c0,1.18.07,1.67.16,1.08.09-.59.09-1.56,0-2.15-.09-.59-.16-.11-.16,1.07M280.64,214.45c0,4.83.06,6.81.12,4.4.07-2.42.07-6.37,0-8.79-.07-2.42-.12-.44-.12,4.39M252.73,225.68l-6.83,6.93,6.93-6.83c3.81-3.76,6.93-6.88,6.93-6.93,0-.28-.69.39-7.04,6.83M119.53,223.56c0,.07.57.64,1.27,1.27l1.27,1.15-1.15-1.27c-1.07-1.18-1.39-1.45-1.39-1.15M171.29,250c4.08,4.08,7.5,7.42,7.61,7.42s-3.14-3.34-7.22-7.42c-4.08-4.08-7.5-7.42-7.61-7.42s3.14,3.34,7.22,7.42M228.31,250.1l-2.72,2.83,2.83-2.72c2.63-2.53,3.01-2.94,2.72-2.94-.06,0-1.33,1.27-2.83,2.83M215.82,262.6l-7.03,7.13,7.13-7.03c3.92-3.86,7.13-7.07,7.13-7.13,0-.28-.7.4-7.23,7.03" fill="#ff9700" fill-rule="evenodd"/>
    </g>
  </g>
</svg>